<svg width="96" height="96" viewBox="0 0 96 96" fill="none" xmlns="http://www.w3.org/2000/svg">
<rect width="96" height="96" rx="16" fill="#FF974A"/>
<path d="M36.3819 25.4744L36.1125 24.1275C36.0725 23.9256 35.935 23.7562 35.7456 23.6756L31.86 22.01L32.1481 20.8575C32.2988 20.2569 32.375 19.6381 32.375 19.0181C32.375 17.8462 32.0981 16.6731 31.5744 15.6262L31.3638 15.2044C31.2075 14.8919 31.125 14.5431 31.125 14.1944C31.125 13.5912 31.36 13.0237 31.7869 12.5975L32.1919 12.1919C32.3094 12.075 32.375 11.9156 32.375 11.75V9.25C32.375 8.905 32.0956 8.625 31.75 8.625H24.25C23.9044 8.625 23.625 8.905 23.625 9.25V11.75C23.625 11.9156 23.6906 12.075 23.8081 12.1919L24.2131 12.5975C24.64 13.0244 24.875 13.5912 24.875 14.1944C24.875 14.5431 24.7925 14.8919 24.6363 15.2044L24.4256 15.6256C23.9019 16.6731 23.625 17.8462 23.625 19.0181C23.625 19.6381 23.7012 20.2569 23.8512 20.8581L24.1394 22.0106L20.2538 23.6763C20.0644 23.7569 19.9275 23.9263 19.8869 24.1281L19.6175 25.475C18.9587 28.7675 18.625 32.1406 18.625 35.5C18.625 38.8594 18.9588 42.2325 19.6181 45.5256L19.8875 46.8725C19.9456 47.165 20.2019 47.375 20.5 47.375H35.5C35.7981 47.375 36.0544 47.165 36.1125 46.8725L36.3819 45.5256C37.0413 42.2325 37.375 38.8594 37.375 35.5C37.375 32.1406 37.0413 28.7675 36.3819 25.4744ZM19.875 35.5C19.875 33.1644 20.0481 30.8231 20.3763 28.5069L20.8869 28.3612C23.1762 27.7069 25.545 27.375 27.9263 27.375H28.0737C30.455 27.375 32.8237 27.7069 35.1138 28.3612L35.6244 28.5069C35.9519 30.8231 36.125 33.1644 36.125 35.5C36.125 36.9587 36.05 38.4194 35.9219 39.875H20.0781C19.95 38.4194 19.875 36.9587 19.875 35.5ZM31.125 9.875V11.125H24.875V9.875H31.125ZM21.0488 24.695L25.1212 22.9494C25.4031 22.8288 25.5556 22.5206 25.4812 22.2231L25.0638 20.555C24.9387 20.0531 24.875 19.5363 24.875 19.0181C24.875 18.0394 25.1062 17.06 25.5437 16.1844L25.7544 15.7631C25.9969 15.2787 26.125 14.7362 26.125 14.1944C26.125 13.5406 25.9375 12.9194 25.605 12.375H30.3956C30.0625 12.9194 29.875 13.5406 29.875 14.1944C29.875 14.7362 30.0031 15.2781 30.2456 15.7631L30.4563 16.185C30.8938 17.06 31.125 18.0394 31.125 19.0181C31.125 19.5363 31.0613 20.0531 30.9363 20.5544L30.5187 22.2231C30.4444 22.5206 30.5969 22.8281 30.8787 22.9494L34.9513 24.695L35.1562 25.72C35.2506 26.1931 35.3244 26.6706 35.405 27.1469C33.0194 26.47 30.5531 26.125 28.0737 26.125H27.9263C25.4469 26.125 22.9806 26.47 20.595 27.1462C20.6756 26.67 20.7494 26.1925 20.8437 25.7194L21.0488 24.695ZM35.1562 45.2806L34.9875 46.125H21.0125L20.8431 45.28C20.5687 43.9075 20.3644 42.5187 20.2056 41.125H35.7931C35.6356 42.5194 35.4312 43.9081 35.1562 45.2806Z" fill="white"/>
<path d="M28 28.625C25.2431 28.625 23 30.8681 23 33.625C23 36.3819 25.2431 38.625 28 38.625C30.7569 38.625 33 36.3819 33 33.625C33 30.8681 30.7569 28.625 28 28.625ZM28 37.375C25.9319 37.375 24.25 35.6931 24.25 33.625C24.25 31.5569 25.9319 29.875 28 29.875C30.0681 29.875 31.75 31.5569 31.75 33.625C31.75 35.6931 30.0681 37.375 28 37.375Z" fill="white"/>
</svg>
