<svg width="18" height="22" viewBox="0 0 18 22" fill="none" xmlns="http://www.w3.org/2000/svg">
    <path d="M17.1271 5.71864H3.72775C2.48614 5.71864 1.4711 4.70814 1.4711 3.462C1.4711 2.22039 2.48161 1.20536 3.72775 1.20536H17.1317C17.467 1.20536 17.7343 0.933471 17.7343 0.602678C17.7343 0.267353 17.4625 0 17.1317 0H3.72775C1.82002 0 0.265747 1.55427 0.265747 3.462V18.538C0.265747 20.4457 1.82002 22 3.72775 22H17.1317C17.467 22 17.7343 21.7281 17.7343 21.3973V6.32132C17.7298 5.99053 17.4625 5.71864 17.1271 5.71864ZM16.5245 20.7946H3.72775C2.48614 20.7946 1.4711 19.7841 1.4711 18.538V6.09022C2.07831 6.61133 2.86678 6.92853 3.72775 6.92853H16.5245V20.7946Z" fill="#61707D"/>
    <path d="M3.91811 2.9137C3.58278 2.9137 3.31543 3.18558 3.31543 3.51637C3.31543 3.84717 3.58731 4.11905 3.91811 4.11905H15.2376C15.5729 4.11905 15.8402 3.84717 15.8402 3.51637C15.8402 3.18558 15.5683 2.9137 15.2376 2.9137H3.91811Z" fill="#61707D"/>
    <path d="M6.03871 18.1573C6.10668 18.18 6.17466 18.1936 6.24263 18.1936C6.49185 18.1936 6.72296 18.0395 6.80905 17.7948L7.54314 15.7421H10.3707C10.3934 15.7421 10.4206 15.7421 10.4432 15.7375L11.1773 17.7948C11.2634 18.0395 11.4991 18.1936 11.7437 18.1936C11.8117 18.1936 11.8797 18.18 11.9477 18.1573C12.2603 18.044 12.4235 17.6996 12.3102 17.387L9.56414 9.6881C9.55961 9.66997 9.55055 9.65185 9.54149 9.63372C9.53696 9.62466 9.53242 9.6156 9.52789 9.60653C9.52336 9.59747 9.51883 9.58841 9.5143 9.57935C9.50977 9.57028 9.5007 9.56122 9.49617 9.54763C9.49164 9.54309 9.48711 9.53403 9.48258 9.5295C9.47805 9.52044 9.46898 9.51138 9.45992 9.50231C9.45539 9.49778 9.45086 9.48872 9.4418 9.48419C9.43726 9.47512 9.4282 9.47059 9.41914 9.46153C9.41008 9.45247 9.40554 9.44794 9.39648 9.43887C9.39195 9.43434 9.38289 9.42981 9.37836 9.42075C9.36929 9.41168 9.36023 9.40715 9.35117 9.39809C9.34664 9.39356 9.33757 9.38903 9.33304 9.3845C9.32398 9.37996 9.31492 9.3709 9.30585 9.36637C9.29679 9.36184 9.28773 9.35731 9.27867 9.35278C9.2696 9.34824 9.26054 9.34371 9.25148 9.33918C9.23335 9.33012 9.21523 9.32106 9.1971 9.31652H9.19257C9.17444 9.31199 9.15632 9.30746 9.13819 9.30293C9.12913 9.30293 9.1246 9.2984 9.11554 9.2984C9.10194 9.29387 9.09288 9.29387 9.07928 9.28934C9.07022 9.28934 9.06116 9.28934 9.0521 9.2848C9.04303 9.2848 9.02944 9.28027 9.02038 9.28027C9.01131 9.28027 9.00225 9.28027 8.99319 9.28027C8.98412 9.28027 8.97506 9.28027 8.96147 9.28027C8.9524 9.28027 8.93881 9.28027 8.92975 9.2848C8.92068 9.2848 8.91162 9.2848 8.90256 9.28934C8.88897 9.28934 8.8799 9.29387 8.86631 9.2984C8.85725 9.2984 8.85271 9.30293 8.84365 9.30293C8.82553 9.30746 8.8074 9.31199 8.79381 9.31652H8.78927C8.77115 9.32106 8.75302 9.33012 8.7349 9.33918C8.72583 9.34371 8.71677 9.34824 8.70771 9.35278C8.69865 9.35731 8.68958 9.36184 8.68052 9.36637C8.67146 9.3709 8.6624 9.37996 8.6488 9.3845C8.64427 9.38903 8.63521 9.39356 8.63068 9.39809C8.62161 9.40715 8.61255 9.41168 8.60349 9.42075C8.59896 9.42528 8.58989 9.42981 8.58536 9.43887C8.5763 9.44794 8.57177 9.45247 8.5627 9.46153C8.55364 9.47059 8.54911 9.47512 8.54005 9.48419C8.53552 9.48872 8.53098 9.49778 8.52192 9.50231C8.51286 9.51138 8.50833 9.52044 8.49926 9.5295C8.49473 9.53403 8.4902 9.54309 8.48567 9.54763C8.48114 9.55669 8.47208 9.56575 8.46754 9.57482C8.46301 9.58388 8.45848 9.59294 8.45395 9.602C8.44942 9.61107 8.44489 9.62013 8.44036 9.62919C8.43129 9.64732 8.42223 9.66544 8.4177 9.68357L5.66261 17.3824C5.56292 17.6996 5.72605 18.044 6.03871 18.1573ZM8.99772 11.6819L10.0173 14.5367H7.97362L8.99772 11.6819Z" fill="#61707D"/>
</svg>
