<svg width="16" height="18" viewBox="0 0 16 18" fill="none" xmlns="http://www.w3.org/2000/svg">
    <path d="M14.6494 4.67889H3.6863C2.67044 4.67889 1.83996 3.85211 1.83996 2.83254C1.83996 1.81668 2.66674 0.9862 3.6863 0.9862H14.6531C14.9275 0.9862 15.1462 0.763749 15.1462 0.4931C15.1462 0.218744 14.9238 0 14.6531 0H3.6863C2.12544 0 0.85376 1.27168 0.85376 2.83254V15.1675C0.85376 16.7283 2.12544 18 3.6863 18H14.6531C14.9275 18 15.1462 17.7775 15.1462 17.5069V5.17199C15.1425 4.90134 14.9238 4.67889 14.6494 4.67889ZM14.1563 17.0138H3.6863C2.67044 17.0138 1.83996 16.187 1.83996 15.1675V4.9829C2.33677 5.40927 2.98188 5.6688 3.6863 5.6688H14.1563V17.0138Z" fill="white"/>
    <path d="M3.84198 2.38379C3.56762 2.38379 3.34888 2.60624 3.34888 2.87689C3.34888 3.14754 3.57133 3.36999 3.84198 3.36999H13.1033C13.3777 3.36999 13.5964 3.14754 13.5964 2.87689C13.5964 2.60624 13.374 2.38379 13.1033 2.38379H3.84198Z" fill="white"/>
    <path d="M1.45459 4.90918H14.5455V17.1819H3.45459C2.35002 17.1819 1.45459 16.2865 1.45459 15.1819V4.90918Z" fill="white"/>
    <path d="M5.57708 14.8558C5.6327 14.8743 5.68831 14.8855 5.74392 14.8855C5.94784 14.8855 6.13692 14.7594 6.20736 14.5592L6.80798 12.8797H9.12147C9.14 12.8797 9.16225 12.8797 9.18079 12.876L9.7814 14.5592C9.85184 14.7594 10.0446 14.8855 10.2448 14.8855C10.3005 14.8855 10.3561 14.8743 10.4117 14.8558C10.6675 14.7631 10.801 14.4813 10.7083 14.2255L8.46153 7.92645C8.45782 7.91162 8.45041 7.89679 8.44299 7.88196C8.43928 7.87454 8.43558 7.86713 8.43187 7.85971C8.42816 7.8523 8.42445 7.84488 8.42075 7.83747C8.41704 7.83005 8.40962 7.82264 8.40592 7.81152C8.40221 7.80781 8.3985 7.80039 8.39479 7.79669C8.39109 7.78927 8.38367 7.78186 8.37626 7.77444C8.37255 7.77073 8.36884 7.76332 8.36143 7.75961C8.35772 7.7522 8.3503 7.74849 8.34289 7.74107C8.33547 7.73366 8.33177 7.72995 8.32435 7.72254C8.32064 7.71883 8.31323 7.71512 8.30952 7.70771C8.30211 7.70029 8.29469 7.69658 8.28728 7.68917C8.28357 7.68546 8.27615 7.68175 8.27245 7.67805C8.26503 7.67434 8.25762 7.66692 8.2502 7.66322C8.24279 7.65951 8.23537 7.6558 8.22796 7.65209C8.22054 7.64839 8.21313 7.64468 8.20571 7.64097C8.19088 7.63356 8.17605 7.62614 8.16122 7.62243H8.15751C8.14268 7.61873 8.12785 7.61502 8.11302 7.61131C8.10561 7.61131 8.1019 7.6076 8.09449 7.6076C8.08336 7.6039 8.07595 7.6039 8.06483 7.60019C8.05741 7.60019 8.04999 7.60019 8.04258 7.59648C8.03516 7.59648 8.02404 7.59277 8.01663 7.59277C8.00921 7.59277 8.0018 7.59277 7.99438 7.59277C7.98697 7.59277 7.97955 7.59277 7.96843 7.59277C7.96101 7.59277 7.94989 7.59277 7.94248 7.59648C7.93506 7.59648 7.92765 7.59648 7.92023 7.60019C7.90911 7.60019 7.90169 7.6039 7.89057 7.6076C7.88316 7.6076 7.87945 7.61131 7.87203 7.61131C7.8572 7.61502 7.84237 7.61873 7.83125 7.62243H7.82754C7.81271 7.62614 7.79788 7.63356 7.78305 7.64097C7.77564 7.64468 7.76822 7.64839 7.76081 7.65209C7.75339 7.6558 7.74598 7.65951 7.73856 7.66322C7.73115 7.66692 7.72373 7.67434 7.71261 7.67805C7.7089 7.68175 7.70149 7.68546 7.69778 7.68917C7.69037 7.69658 7.68295 7.70029 7.67554 7.70771C7.67183 7.71141 7.66441 7.71512 7.66071 7.72254C7.65329 7.72995 7.64958 7.73366 7.64217 7.74107C7.63475 7.74849 7.63105 7.7522 7.62363 7.75961C7.61992 7.76332 7.61622 7.77073 7.6088 7.77444C7.60139 7.78186 7.59768 7.78927 7.59026 7.79669C7.58656 7.80039 7.58285 7.80781 7.57914 7.81152C7.57543 7.81893 7.56802 7.82635 7.56431 7.83376C7.5606 7.84118 7.5569 7.84859 7.55319 7.85601C7.54948 7.86342 7.54577 7.87084 7.54207 7.87825C7.53465 7.89308 7.52724 7.90791 7.52353 7.92274L5.26936 14.2218C5.1878 14.4813 5.32127 14.7631 5.57708 14.8558ZM7.99809 9.55776L8.83228 11.8935H7.16019L7.99809 9.55776Z" fill="#3DD498"/>
</svg>
