<svg width="41" height="40" viewBox="0 0 41 40" fill="none" xmlns="http://www.w3.org/2000/svg">
    <path d="M28.5 17.4744L28.2298 16.1275C28.1897 15.9256 28.0518 15.7562 27.8618 15.6756L23.9649 14.01L24.2538 12.8575C24.4049 12.2569 24.4814 11.6381 24.4814 11.0181C24.4814 9.84625 24.2037 8.67312 23.6784 7.62625L23.4672 7.20438C23.3105 6.89188 23.2277 6.54313 23.2277 6.19438C23.2277 5.59125 23.4634 5.02375 23.8915 4.5975L24.2977 4.19187C24.4156 4.075 24.4814 3.91563 24.4814 3.75V1.25C24.4814 0.905 24.2012 0.625 23.8545 0.625H16.3326C15.986 0.625 15.7058 0.905 15.7058 1.25V3.75C15.7058 3.91563 15.7716 4.075 15.8894 4.19187L16.2956 4.5975C16.7237 5.02437 16.9594 5.59125 16.9594 6.19438C16.9594 6.54313 16.8767 6.89188 16.72 7.20438L16.5087 7.62563C15.9835 8.67313 15.7058 9.84625 15.7058 11.0181C15.7058 11.6381 15.7823 12.2569 15.9327 12.8581L16.2217 14.0106L12.3247 15.6763C12.1347 15.7569 11.9975 15.9263 11.9567 16.1281L11.6866 17.475C11.0259 20.7675 10.6912 24.1406 10.6912 27.5C10.6912 30.8594 11.0259 34.2325 11.6872 37.5256L11.9574 38.8725C12.0156 39.165 12.2726 39.375 12.5716 39.375H27.6155C27.9145 39.375 28.1715 39.165 28.2298 38.8725L28.5 37.5256C29.1613 34.2325 29.496 30.8594 29.496 27.5C29.496 24.1406 29.1613 20.7675 28.5 17.4744ZM11.9448 27.5C11.9448 25.1644 12.1184 22.8231 12.4475 20.5069L12.9597 20.3612C15.2557 19.7069 17.6314 19.375 20.0196 19.375H20.1675C22.5558 19.375 24.9314 19.7069 27.2281 20.3612L27.7402 20.5069C28.0687 22.8231 28.2423 25.1644 28.2423 27.5C28.2423 28.9587 28.1671 30.4194 28.0386 31.875H12.1485C12.02 30.4194 11.9448 28.9587 11.9448 27.5ZM23.2277 1.875V3.125H16.9594V1.875H23.2277ZM13.122 16.695L17.2064 14.9494C17.4891 14.8288 17.6421 14.5206 17.5675 14.2231L17.1487 12.555C17.0234 12.0531 16.9594 11.5363 16.9594 11.0181C16.9594 10.0394 17.1914 9.06 17.6301 8.18438L17.8414 7.76312C18.0846 7.27875 18.2131 6.73625 18.2131 6.19438C18.2131 5.54063 18.025 4.91937 17.6916 4.375H22.4962C22.1621 4.91937 21.9741 5.54063 21.9741 6.19438C21.9741 6.73625 22.1026 7.27812 22.3458 7.76312L22.557 8.185C22.9958 9.06 23.2277 10.0394 23.2277 11.0181C23.2277 11.5363 23.1638 12.0531 23.0384 12.5544L22.6197 14.2231C22.5451 14.5206 22.698 14.8281 22.9807 14.9494L27.0652 16.695L27.2708 17.72C27.3654 18.1931 27.4394 18.6706 27.5202 19.1469C25.1276 18.47 22.6542 18.125 20.1675 18.125H20.0196C17.533 18.125 15.0595 18.47 12.6669 19.1462C12.7478 18.67 12.8217 18.1925 12.9164 17.7194L13.122 16.695ZM27.2708 37.2806L27.1015 38.125H13.0856L12.9158 37.28C12.6406 35.9075 12.4356 34.5187 12.2764 33.125H27.9095C27.7515 34.5194 27.5466 35.9081 27.2708 37.2806Z" fill="white"/>
    <path d="M20.0936 20.625C17.3287 20.625 15.079 22.8681 15.079 25.625C15.079 28.3819 17.3287 30.625 20.0936 30.625C22.8585 30.625 25.1082 28.3819 25.1082 25.625C25.1082 22.8681 22.8585 20.625 20.0936 20.625ZM20.0936 29.375C18.0194 29.375 16.3326 27.6931 16.3326 25.625C16.3326 23.5569 18.0194 21.875 20.0936 21.875C22.1678 21.875 23.8546 23.5569 23.8546 25.625C23.8546 27.6931 22.1678 29.375 20.0936 29.375Z" fill="white"/>
</svg>
