<svg width="18" height="22" viewBox="0 0 18 22" fill="none" xmlns="http://www.w3.org/2000/svg">
<path d="M17.4615 5.07689C17.4615 4.14226 16.7039 3.38458 15.7693 3.38458H13.4199C13.1065 3.03644 12.704 2.77006 12.2414 2.637C11.8518 2.52499 11.552 2.22513 11.4399 1.83553C11.135 0.775451 10.1581 0 8.99996 0C7.84188 0 6.86499 0.775451 6.56017 1.83542C6.44794 2.2255 6.14735 2.52499 5.75727 2.63737C5.29527 2.77053 4.89308 3.03665 4.57994 3.38458H2.23075C1.29606 3.38458 0.538429 4.14226 0.538429 5.07689V20.3077C0.538429 21.2423 1.29606 22 2.23075 22C6.11599 22 10.8911 22 15.7693 22C16.704 22 17.4616 21.2423 17.4616 20.3077C17.4616 15.5016 17.4615 10.8994 17.4615 5.07689ZM4.76927 5.0633C4.77509 4.31942 5.27771 3.65625 5.99155 3.45053C6.66371 3.25686 7.18024 2.74049 7.37327 2.06939C7.58047 1.34909 8.24936 0.846158 8.99996 0.846158C9.7506 0.846158 10.4195 1.34909 10.6266 2.06939C10.8197 2.74092 11.3359 3.25713 12.0075 3.45021C12.7277 3.65736 13.2307 4.3263 13.2307 5.07684V5.923H4.76927V5.0633ZM15.7693 21.1538C11.25 21.1538 6.73812 21.1538 2.23075 21.1538C1.76414 21.1538 1.38459 20.7742 1.38459 20.3077V5.07689C1.38459 4.61034 1.76414 4.23074 2.23075 4.23074H4.06807C3.97658 4.48945 3.92539 4.76715 3.92317 5.05664V6.76921H14.077V5.07689C14.077 4.77995 14.0245 4.49564 13.9308 4.23074H15.7693C16.2358 4.23074 16.6154 4.61034 16.6154 5.07689C16.6154 7.49601 16.6153 18.8404 16.6155 20.3077C16.6154 20.7742 16.2359 21.1538 15.7693 21.1538Z" fill="#61707D" stroke="#61707D" stroke-width="0.4"/>
<path d="M12.5174 10.2865L7.43165 15.3723L5.18996 13.1306L4.59167 13.7289L7.43165 16.5689L13.1157 10.8849L12.5174 10.2865Z" fill="#61707D" stroke="#61707D" stroke-width="0.4"/>
</svg>
