<svg width="18" height="20" viewBox="0 0 18 20" fill="none" xmlns="http://www.w3.org/2000/svg">
    <path d="M8.99358 3.08313C6.18762 3.08431 3.91386 5.35998 3.91504 8.16595C3.91563 9.51319 4.45126 10.8051 5.4042 11.7575C6.35641 12.7117 7.64976 13.247 8.99786 13.2445C11.8038 13.2433 14.0776 10.9676 14.0764 8.16168C14.0752 5.35571 11.7996 3.08196 8.99358 3.08313ZM12.0574 11.2546C10.3543 12.9491 7.60003 12.9421 5.9056 11.239C5.09286 10.4221 4.63746 9.3161 4.63933 8.16381C4.63981 7.00848 5.10119 5.90106 5.92125 5.0872C7.62433 3.39277 10.3786 3.39976 12.073 5.10285C13.7675 6.80594 13.7605 9.5602 12.0574 11.2546Z" fill="#61707D" stroke="#61707D" stroke-width="0.4"/>
    <path d="M16.8918 7.15238C16.6926 6.77944 16.3871 6.47403 16.0142 6.27479C16.6356 5.27163 16.326 3.95478 15.3229 3.33342C14.964 3.11117 14.5474 3.00012 14.1255 3.01444C14.1646 1.83512 13.2402 0.847397 12.0609 0.808352C11.6378 0.794358 11.2202 0.906312 10.8609 1.13001C10.3048 0.0892466 9.01038 -0.303663 7.96962 0.252425C7.59669 0.451657 7.29127 0.757075 7.09204 1.13001C6.0758 0.530335 4.76583 0.868015 4.16616 1.88426C3.96442 2.22616 3.86186 2.61752 3.87014 3.01444C2.69083 2.97539 1.70311 3.89976 1.66406 5.07908C1.65007 5.50211 1.76202 5.91975 1.98572 6.27907C0.944959 6.83515 0.552051 8.12958 1.10814 9.17034C1.30737 9.54327 1.61279 9.84869 1.98572 10.0479H1.96435C1.34022 11.0493 1.64606 12.3671 2.64746 12.9912C3.01329 13.2192 3.43952 13.3312 3.87014 13.3126C3.83804 14.3107 4.5017 15.1979 5.46827 15.4491V19.0214C5.46827 19.7649 5.78875 19.9999 6.21606 19.9999C6.568 19.9591 6.90429 19.8313 7.19459 19.6282L8.99783 18.5471L10.8011 19.5982C11.0926 19.8021 11.4304 19.9298 11.7839 19.97C12.2112 19.97 12.5317 19.7307 12.5317 18.9915V15.4448C13.4982 15.1937 14.1619 14.3064 14.1298 13.3083C15.3091 13.3473 16.2968 12.4229 16.3359 11.2436C16.3499 10.8206 16.2379 10.403 16.0142 10.0436C17.055 9.48756 17.4478 8.19314 16.8918 7.15238ZM11.8181 19.0214V19.2735C11.5879 19.2175 11.3714 19.1158 11.1814 18.9744L9.19439 17.8206C9.08094 17.7541 8.94036 17.7541 8.82691 17.8206L6.82283 18.9744C6.63722 19.1043 6.42832 19.1971 6.20751 19.2479C6.20751 19.2479 6.20751 19.188 6.20751 18.9957V15.5046H6.31861C6.61094 15.4644 6.89174 15.3639 7.14332 15.2098C7.6994 16.2506 8.99382 16.6435 10.0346 16.0874C10.4075 15.8881 10.7129 15.5827 10.9122 15.2098C11.1637 15.3639 11.4445 15.4644 11.7369 15.5046H11.848L11.8181 19.0214ZM16.3828 8.48718C16.2557 8.99231 15.8613 9.38671 15.3562 9.51379C15.1615 9.56234 15.0431 9.75949 15.0917 9.95413C15.1089 10.023 15.1458 10.0853 15.1981 10.1334C15.7575 10.6786 15.7689 11.5741 15.2237 12.1334C14.8595 12.5071 14.3191 12.6499 13.8179 12.5049C13.6284 12.4389 13.4214 12.5389 13.3553 12.7283C13.3253 12.8143 13.3287 12.9084 13.3649 12.9921C13.5822 13.7424 13.1501 14.5268 12.3997 14.744C11.8941 14.8904 11.3489 14.7439 10.9848 14.3637C10.846 14.219 10.616 14.2142 10.4712 14.353C10.421 14.4012 10.3857 14.4627 10.3695 14.5304C10.1789 15.2879 9.41034 15.7476 8.65278 15.557C8.14765 15.4299 7.75324 15.0355 7.62617 14.5304C7.57762 14.3357 7.38047 14.2173 7.18583 14.2659C7.11698 14.2831 7.05465 14.32 7.00658 14.3723C6.46486 14.935 5.56944 14.9521 5.00667 14.4104C4.6268 14.0446 4.48183 13.4979 4.63075 12.9921C4.68635 12.7994 4.57515 12.598 4.38243 12.5424C4.31556 12.5232 4.24452 12.5235 4.1778 12.5434C3.42751 12.7607 2.64308 12.3286 2.42585 11.5782C2.27944 11.0726 2.42595 10.5274 2.80615 10.1633C2.9509 10.0245 2.95571 9.79453 2.81688 9.64972C2.76871 9.59951 2.70717 9.56415 2.6395 9.54797C1.8814 9.35953 1.41959 8.59224 1.60803 7.8342C1.65594 7.64154 1.74386 7.46111 1.86607 7.3046L1.87035 7.29179C2.0645 7.04192 2.33681 6.86437 2.64377 6.78756C2.83985 6.74537 2.96463 6.55217 2.92243 6.35604C2.90555 6.27757 2.86314 6.20696 2.80188 6.15515C2.24248 5.6099 2.23099 4.71443 2.77624 4.15508C3.14046 3.7814 3.68079 3.63862 4.18208 3.78359C4.37479 3.83919 4.57611 3.72799 4.63171 3.53527C4.65099 3.4684 4.65067 3.39736 4.63075 3.33064C4.41346 2.58034 4.84558 1.79591 5.59593 1.57868C6.10159 1.43227 6.64673 1.57879 7.01085 1.95899C7.14967 2.10374 7.37962 2.10854 7.52442 1.96972C7.57463 1.92154 7.60993 1.86001 7.62617 1.79233C7.81675 1.03477 8.58532 0.575149 9.34288 0.765728C9.84801 0.892799 10.2424 1.2872 10.3695 1.79233C10.418 1.98697 10.6152 2.10539 10.8098 2.05684C10.8787 2.03964 10.941 2.00268 10.9891 1.95044C11.5343 1.39104 12.4298 1.37956 12.9891 1.9248C13.3628 2.28903 13.5056 2.82936 13.3606 3.33064C13.305 3.52336 13.4162 3.72467 13.609 3.78028C13.6758 3.79956 13.7469 3.79924 13.8136 3.77932C14.5639 3.56219 15.3483 3.99441 15.5654 4.74482C15.7111 5.24824 15.5664 5.79103 15.1895 6.15515C15.0447 6.29397 15.04 6.52391 15.1788 6.66872C15.227 6.71893 15.2885 6.75423 15.3562 6.77047C16.1137 6.961 16.5733 7.72962 16.3828 8.48718Z" fill="#61707D" stroke="#61707D" stroke-width="0.4"/>
</svg>
