<svg width="16" height="20" viewBox="0 0 16 20" fill="none" xmlns="http://www.w3.org/2000/svg">
    <path d="M15.6923 4.61536C15.6923 3.76569 15.0036 3.07689 14.1539 3.07689H12.0181C11.7332 2.7604 11.3673 2.51823 10.9468 2.39727C10.5926 2.29544 10.32 2.02285 10.2181 1.66866C9.94095 0.704955 9.05282 0 7.99998 0C6.94718 0 6.0591 0.704955 5.78198 1.66857C5.67996 2.02318 5.40669 2.29544 5.05208 2.39761C4.63207 2.51867 4.26645 2.76059 3.98178 3.07689H1.84615C0.996432 3.07689 0.307678 3.76569 0.307678 4.61536V18.4615C0.307678 19.3112 0.996432 20 1.84615 20C5.37818 20 9.71917 20 14.1539 20C15.0036 20 15.6924 19.3112 15.6924 18.4615C15.6924 14.0923 15.6923 9.90851 15.6923 4.61536ZM4.1539 4.603C4.15919 3.92675 4.61611 3.32386 5.26506 3.13684C5.87612 2.96078 6.34569 2.49136 6.52117 1.88126C6.70954 1.22645 7.31762 0.769234 7.99998 0.769234C8.68238 0.769234 9.29046 1.22645 9.47873 1.88126C9.65431 2.49174 10.1236 2.96102 10.7341 3.13655C11.3888 3.32487 11.8461 3.933 11.8461 4.61531V5.38455H4.1539V4.603ZM14.1539 19.2308C10.0455 19.2308 5.94376 19.2308 1.84615 19.2308C1.42196 19.2308 1.07691 18.8857 1.07691 18.4615V4.61536C1.07691 4.19122 1.42196 3.84612 1.84615 3.84612H3.51644C3.43327 4.08132 3.38673 4.33377 3.38471 4.59695V6.15383H12.6154V4.61536C12.6154 4.34541 12.5677 4.08694 12.4825 3.84612H14.1539C14.578 3.84612 14.9231 4.19122 14.9231 4.61536C14.9231 6.81455 14.923 17.1276 14.9232 18.4615C14.9231 18.8857 14.5781 19.2308 14.1539 19.2308Z" fill="#3DD498" stroke="#3DD498" stroke-width="0.4"/>
    <path d="M11.1977 9.35138L6.57422 13.9748L4.53633 11.9369L3.99243 12.4808L6.57422 15.0627L11.7416 9.89532L11.1977 9.35138Z" fill="#3DD498" stroke="#3DD498" stroke-width="0.4"/>
</svg>
