<svg width="24" height="24" viewBox="0 0 24 24" fill="none" xmlns="http://www.w3.org/2000/svg">
    <path d="M18.0466 0.322716L18.0459 0.322725C17.9772 0.323548 17.9114 0.351118 17.8626 0.399587C17.8626 0.399635 17.8625 0.399682 17.8625 0.39973L0.400443 17.8618C0.400331 17.8619 0.400219 17.862 0.400107 17.8621C0.375727 17.8867 0.356412 17.9158 0.343258 17.9479C0.330044 17.9801 0.323309 18.0146 0.323438 18.0494L0.323442 18.0503L0.32344 22.8118V22.812C0.32341 22.8468 0.330231 22.8812 0.343515 22.9134C0.356799 22.9455 0.376284 22.9747 0.40086 22.9993C0.425432 23.0239 0.454611 23.0434 0.486731 23.0567C0.518854 23.0701 0.553282 23.0769 0.588046 23.0769H5.34949H5.35021C5.38503 23.077 5.41952 23.0702 5.45171 23.057C5.4838 23.0438 5.51297 23.0244 5.53757 22.9999L18.0466 0.322716ZM18.0466 0.322716C18.0818 0.32221 18.1169 0.328761 18.1496 0.341985C18.1822 0.355172 18.2118 0.374728 18.2368 0.399506C18.2369 0.399578 18.2369 0.39965 18.237 0.399721L23.0004 5.16313C23.0499 5.21274 23.0778 5.27998 23.0778 5.35008C23.0778 5.42019 23.0499 5.48743 23.0004 5.53704L5.53782 22.9996L18.0466 0.322716ZM18.2376 1.14851L18.0505 0.961404L17.8634 1.14853L15.4372 3.57526L15.2502 3.76235L15.4372 3.94942L19.4504 7.96261L19.6375 8.14968L19.8246 7.96263L22.2513 5.53642L22.4384 5.34933L22.2513 5.16222L18.2376 1.14851ZM15.0621 4.32403L14.875 4.13694L14.6879 4.32403L1.14921 17.8627L0.962083 18.0499L1.14925 18.237L3.49888 20.5856L3.12332 20.9612L1.30433 19.1413L0.852607 18.6893V19.3283V22.2826V22.5472H1.11719H5.1309H5.24049L5.31799 22.4697L19.0758 8.71192L19.2629 8.52483L19.0758 8.33774L15.0621 4.32403Z" fill="#2EBB83" stroke="#2EBB83" stroke-width="2"/>
    <mask id="path-2-inside-1" fill="white">
        <path d="M8.52539 22.2827V23.3413H21.2246V22.2827H8.52539Z"/>
    </mask>
    <path d="M8.52539 22.2827V23.3413H21.2246V22.2827H8.52539Z" fill="#2EBB83"/>
    <path d="M8.52539 22.2827V20.2827H6.52539V22.2827H8.52539ZM8.52539 23.3413H6.52539V25.3413H8.52539V23.3413ZM21.2246 23.3413V25.3413H23.2246V23.3413H21.2246ZM21.2246 22.2827H23.2246V20.2827H21.2246V22.2827ZM6.52539 22.2827V23.3413H10.5254V22.2827H6.52539ZM8.52539 25.3413H21.2246V21.3413H8.52539V25.3413ZM23.2246 23.3413V22.2827H19.2246V23.3413H23.2246ZM21.2246 20.2827H8.52539V24.2827H21.2246V20.2827Z" fill="#2EBB83" mask="url(#path-2-inside-1)"/>
    <mask id="path-4-inside-2" fill="white">
        <path d="M22.2832 22.2827V23.3413H23.3418V22.2827H22.2832Z"/>
    </mask>
    <path d="M22.2832 22.2827V23.3413H23.3418V22.2827H22.2832Z" fill="#2EBB83"/>
    <path d="M22.2832 22.2827V20.2827H20.2832V22.2827H22.2832ZM22.2832 23.3413H20.2832V25.3413H22.2832V23.3413ZM23.3418 23.3413V25.3413H25.3418V23.3413H23.3418ZM23.3418 22.2827H25.3418V20.2827H23.3418V22.2827ZM20.2832 22.2827V23.3413H24.2832V22.2827H20.2832ZM22.2832 25.3413H23.3418V21.3413H22.2832V25.3413ZM25.3418 23.3413V22.2827H21.3418V23.3413H25.3418ZM23.3418 20.2827H22.2832V24.2827H23.3418V20.2827Z" fill="#2EBB83" mask="url(#path-4-inside-2)"/>
</svg>
