<svg width="23" height="20" viewBox="0 0 23 20" fill="none" xmlns="http://www.w3.org/2000/svg">
    <path d="M19.4759 13.8495C19.4321 13.8495 19.3881 13.8379 19.3484 13.8144L15.0688 11.2796H10.6176C7.8265 11.2796 5.55573 8.97385 5.55573 6.13978C5.55573 3.30571 7.8265 1 10.6176 1H17.1981C19.9893 1 22.26 3.30571 22.26 6.13978C22.26 8.38741 20.827 10.3607 18.7416 11.0363L19.7109 13.497C19.7511 13.5989 19.723 13.7155 19.6412 13.7871C19.5942 13.8283 19.5352 13.8495 19.4759 13.8495ZM10.6176 1.51398C8.10562 1.51398 6.06192 3.58911 6.06192 6.13978C6.06192 8.69045 8.10562 10.7656 10.6176 10.7656H15.1372C15.1821 10.7656 15.226 10.7777 15.2648 10.8006L18.9676 12.9938L18.1677 10.9636C18.1407 10.8949 18.1441 10.8179 18.177 10.752C18.2099 10.6861 18.2691 10.6377 18.3395 10.6193C20.3498 10.0927 21.7538 8.25069 21.7538 6.13978C21.7538 3.58911 19.7101 1.51398 17.1981 1.51398H10.6176Z" fill="#3DD498" stroke="#61707D" stroke-width="0.7"/>
    <path d="M3.7841 19.5029C3.72477 19.5029 3.66585 19.4817 3.61878 19.4405C3.53693 19.3688 3.50893 19.2523 3.54907 19.1504L4.51848 16.6896C2.43297 16.0141 1 14.0408 1 11.7932C1 9.89954 2.02078 8.16471 3.66393 7.26566C3.78698 7.19833 3.94046 7.2451 4.00682 7.36999C4.07313 7.49494 4.02712 7.65083 3.90407 7.71816C2.42503 8.52737 1.50619 10.0888 1.50619 11.7932C1.50619 13.9041 2.91021 15.7461 4.9205 16.2726C4.99096 16.2911 5.05018 16.3394 5.08303 16.4053C5.11589 16.4712 5.11928 16.5483 5.09225 16.6169L4.29247 18.6472L7.99525 16.4539C8.03397 16.4311 8.07796 16.4189 8.12281 16.4189H12.6424C14.3209 16.4189 15.8587 15.486 16.6557 13.9841C16.722 13.8592 16.8753 13.8123 16.9986 13.8798C17.1216 13.9472 17.1676 14.103 17.1013 14.228C16.2159 15.8965 14.5074 16.933 12.6424 16.933H8.19125L3.91161 19.4679C3.87192 19.4913 3.82788 19.5029 3.7841 19.5029Z" fill="#3DD498" stroke="#61707D" stroke-width="0.7"/>
</svg>
