<svg width="32" height="32" viewBox="0 0 32 32" fill="none" xmlns="http://www.w3.org/2000/svg">
    <path d="M23.4656 19.7333C23.4656 19.4389 23.2267 19.2 22.9323 19.2H19.7323C19.4379 19.2 19.199 19.4389 19.199 19.7333C19.199 20.0277 19.4379 20.2666 19.7323 20.2666H22.9323C23.2267 20.2667 23.4656 20.0277 23.4656 19.7333Z" fill="#61707D" stroke="#61707D" stroke-width="0.5"/>
    <path d="M21.3324 5.86669V3.2C21.3324 2.90562 21.0934 2.66669 20.7991 2.66669C20.5047 2.66669 20.2657 2.90562 20.2657 3.2V5.86669C20.2657 7.33706 21.462 8.53337 22.9324 8.53337H27.7324V18.6667C27.7324 18.9611 27.9714 19.2 28.2657 19.2C28.5601 19.2 28.7991 18.9611 28.7991 18.6667V8C28.7991 7.70562 28.5601 7.46669 28.2657 7.46669H22.9324C22.0502 7.46669 21.3324 6.74881 21.3324 5.86669Z" fill="#61707D" stroke="#61707D" stroke-width="0.5"/>
    <path d="M22.9323 12.8H18.6656C18.3713 12.8 18.1323 13.0389 18.1323 13.3333C18.1323 13.6277 18.3713 13.8666 18.6656 13.8666H22.9323C23.2267 13.8666 23.4656 13.6277 23.4656 13.3333C23.4657 13.0389 23.2268 12.8 22.9323 12.8Z" fill="#61707D" stroke="#61707D" stroke-width="0.5"/>
    <path d="M17.0657 13.3333C17.0657 13.0389 16.8268 12.8 16.5324 12.8H13.3324C13.038 12.8 12.7991 13.0389 12.7991 13.3333C12.7991 13.6277 13.038 13.8666 13.3324 13.8666H16.5324C16.8268 13.8667 17.0657 13.6278 17.0657 13.3333Z" fill="#61707D" stroke="#61707D" stroke-width="0.5"/>
    <path d="M13.3323 16C13.0379 16 12.799 16.2389 12.799 16.5333C12.799 16.8277 13.0379 17.0666 13.3323 17.0666H14.399C14.6933 17.0666 14.9323 16.8277 14.9323 16.5333C14.9323 16.2389 14.6933 16 14.399 16H13.3323Z" fill="#61707D" stroke="#61707D" stroke-width="0.5"/>
    <path d="M13.3323 10.6667H18.6656C18.96 10.6667 19.1989 10.4278 19.1989 10.1334C19.1989 9.839 18.96 9.60007 18.6656 9.60007H13.3323C13.0379 9.60007 12.799 9.839 12.799 10.1334C12.799 10.4278 13.0379 10.6667 13.3323 10.6667Z" fill="#61707D" stroke="#61707D" stroke-width="0.5"/>
    <path d="M16.5323 17.0667H21.8657C22.16 17.0667 22.399 16.8277 22.399 16.5334C22.399 16.239 22.16 16.0001 21.8657 16.0001H16.5323C16.238 16.0001 15.999 16.239 15.999 16.5334C15.999 16.8277 16.238 17.0667 16.5323 17.0667Z" fill="#61707D" stroke="#61707D" stroke-width="0.5"/>
    <path d="M19.7323 22.4C19.4379 22.4 19.199 22.6389 19.199 22.9333C19.199 23.2277 19.4379 23.4666 19.7323 23.4666H20.799C21.0933 23.4666 21.3323 23.2277 21.3323 22.9333C21.3323 22.6389 21.0933 22.4 20.799 22.4H19.7323Z" fill="#61707D" stroke="#61707D" stroke-width="0.5"/>
    <path d="M17.599 19.2H13.3323C13.0379 19.2 12.799 19.4389 12.799 19.7333C12.799 20.0277 13.0379 20.2666 13.3323 20.2666H17.599C17.8933 20.2666 18.1323 20.0277 18.1323 19.7333C18.1323 19.4389 17.8933 19.2 17.599 19.2Z" fill="#61707D" stroke="#61707D" stroke-width="0.5"/>
    <path d="M17.599 22.4H13.3323C13.0379 22.4 12.799 22.6389 12.799 22.9333C12.799 23.2277 13.0379 23.4666 13.3323 23.4666H17.599C17.8933 23.4666 18.1323 23.2277 18.1323 22.9333C18.1323 22.6389 17.8933 22.4 17.599 22.4Z" fill="#61707D" stroke="#61707D" stroke-width="0.5"/>
    <path d="M30.2971 21.9686L29.2304 20.9019C28.4107 20.0821 27.1616 20.0838 26.343 20.9019L19.3552 27.8896C19.2555 27.9894 19.199 28.1254 19.199 28.2667V31.4667C19.199 31.7611 19.4379 32 19.7323 32H22.9323C23.0736 32 23.2096 31.9435 23.3094 31.8438L30.2971 24.856C31.1467 24.0064 31.1467 22.8187 30.2971 21.9686ZM25.6534 23.0998L26.4992 23.9456L21.8656 28.5793L21.0197 27.7334L25.6534 23.0998ZM20.2657 30.9333V28.4874L22.7115 30.9333H20.2657ZM23.4657 30.1792L22.6198 29.3333L27.2534 24.6997L28.0993 25.5456L23.4657 30.1792ZM29.543 24.1019L28.8533 24.7915L26.4075 22.3456L27.0971 21.656C27.5184 21.2352 28.0529 21.2331 28.4763 21.656L29.543 22.7227C29.9744 23.1547 29.9744 23.6704 29.543 24.1019Z" fill="#61707D" stroke="#61707D" stroke-width="0.5"/>
    <path d="M17.599 30.9333H3.7323C2.85017 30.9333 2.1323 30.2154 2.1323 29.3333V2.66669C2.1323 1.78456 2.85017 1.06669 3.7323 1.06669H20.5782L25.7552 6.24375C25.9637 6.45231 26.3009 6.45231 26.5094 6.24375C26.7179 6.03525 26.7179 5.69812 26.5094 5.48962L21.1761 0.15625C21.0763 0.056 20.9403 0 20.799 0H3.7323C2.26192 0 1.06567 1.19625 1.06567 2.66669V29.3334C1.06567 30.8038 2.26192 32.0001 3.73236 32.0001H17.5991C17.8934 32.0001 18.1324 31.7611 18.1324 31.4667C18.1324 31.1724 17.8934 30.9333 17.599 30.9333Z" fill="#61707D" stroke="#61707D" stroke-width="0.5"/>
    <path d="M17.599 25.6H13.3323C13.0379 25.6 12.799 25.8389 12.799 26.1333C12.799 26.4277 13.0379 26.6666 13.3323 26.6666H17.599C17.8933 26.6666 18.1323 26.4277 18.1323 26.1333C18.1323 25.8389 17.8933 25.6 17.599 25.6Z" fill="#61707D" stroke="#61707D" stroke-width="0.5"/>
    <path d="M10.6657 10.1333C10.6657 9.83894 10.4267 9.60001 10.1324 9.60001H6.93236C6.63799 9.60001 6.39905 9.83894 6.39905 10.1333V13.3333C6.39905 13.6277 6.63799 13.8666 6.93236 13.8666H10.1324C10.4267 13.8666 10.6657 13.6277 10.6657 13.3333V10.1333ZM9.59899 12.8H7.46567V10.6667H9.59899V12.8Z" fill="#61707D" stroke="#61707D" stroke-width="0.5"/>
    <path d="M6.93236 26.6667H10.1324C10.4267 26.6667 10.6657 26.4278 10.6657 26.1334V22.9334C10.6657 22.639 10.4267 22.4001 10.1324 22.4001H6.93236C6.63799 22.4001 6.39905 22.639 6.39905 22.9334V26.1334C6.39905 26.4278 6.63799 26.6667 6.93236 26.6667ZM7.46573 23.4667H9.59905V25.6H7.46573V23.4667Z" fill="#61707D" stroke="#61707D" stroke-width="0.5"/>
    <path d="M7.62189 20.1104C7.72214 20.2106 7.85814 20.2666 7.99895 20.2666C8.01658 20.2666 8.03364 20.2661 8.05176 20.2639C8.2107 20.2485 8.35414 20.1621 8.4427 20.0293L10.576 16.8292C10.7392 16.5839 10.6731 16.2527 10.4283 16.0895C10.1824 15.9257 9.85226 15.9924 9.68851 16.2372L7.91626 18.8959L7.30933 18.2896C7.10083 18.081 6.7637 18.081 6.5552 18.2896C6.3467 18.4981 6.34664 18.8352 6.5552 19.0437L7.62189 20.1104Z" fill="#61707D" stroke="#61707D" stroke-width="0.5"/>
</svg>
