<svg width="20" height="20" viewBox="0 0 20 20" fill="none" xmlns="http://www.w3.org/2000/svg">
    <path d="M18.4333 10.0001V10C18.4333 8.33204 17.9387 6.70155 17.012 5.31469C16.0853 3.92784 14.7682 2.84692 13.2272 2.20862C11.6863 1.57032 9.9906 1.40331 8.3547 1.72871C6.71879 2.05411 5.21612 2.85731 4.0367 4.03673C2.85728 5.21616 2.05408 6.71883 1.72868 8.35474C1.40328 9.99065 1.57029 11.6863 2.20859 13.2273C2.84688 14.7683 3.9278 16.0854 5.31465 17.0121C6.70151 17.9387 8.332 18.4333 9.99996 18.4333H10.0001C12.2359 18.4308 14.3795 17.5415 15.9604 15.9605C17.5414 14.3795 18.4307 12.236 18.4333 10.0001ZM4.49982 1.76845C6.12785 0.680636 8.04189 0.100012 9.9999 0.1C12.6246 0.102962 15.141 1.14695 16.997 3.00293C18.853 4.85892 19.897 7.37534 19.8999 10.0001C19.8999 11.9581 19.3193 13.8721 18.2315 15.5001C17.1437 17.1282 15.5975 18.3971 13.7885 19.1464C11.9795 19.8957 9.98897 20.0918 8.06857 19.7098C6.14816 19.3278 4.38415 18.3849 2.99961 17.0004C1.61507 15.6158 0.672192 13.8518 0.290199 11.9314C-0.0917936 10.011 0.104259 8.02042 0.853565 6.21143C1.60287 4.40245 2.87178 2.85628 4.49982 1.76845Z" fill="#3DD498" stroke="white" stroke-width="0.2"/>
    <path d="M5.35887 5.3589C6.58994 4.12782 8.25907 3.43534 10.0001 3.43337C11.7416 3.43339 13.4119 4.12523 14.6433 5.35671C15.8748 6.58819 16.5667 8.25845 16.5667 10C16.5667 11.7416 15.8748 13.4119 14.6433 14.6434C13.4354 15.8513 11.8054 16.54 10.1 16.5659V15.0991C11.0738 15.08 12.0225 14.7824 12.8334 14.2405C13.6721 13.6801 14.3258 12.8836 14.7118 11.9517C15.0978 11.0198 15.1988 9.99438 15.002 9.00508C14.8052 8.01578 14.3195 7.10704 13.6063 6.3938C12.893 5.68055 11.9843 5.19482 10.995 4.99804C10.0057 4.80125 8.98023 4.90225 8.04833 5.28825C7.11642 5.67426 6.31991 6.32794 5.75952 7.16663C5.21765 7.97758 4.92008 8.9263 4.90099 9.90004H3.43422C3.46206 8.19526 4.1514 6.56637 5.35887 5.3589Z" fill="#3DD498" stroke="white" stroke-width="0.2"/>
    <path d="M11.9198 11.4402L11.92 11.44C12.0694 11.2409 12.1949 10.949 12.2987 10.6008C12.402 10.2542 12.4818 9.85879 12.5432 9.45787C12.666 8.65608 12.7142 7.83982 12.7328 7.36195L12.7328 7.36193C12.7374 7.24333 12.7132 7.12537 12.6622 7.01818C12.6112 6.911 12.535 6.81779 12.4401 6.74657C12.3451 6.67535 12.2343 6.62824 12.1171 6.60929C11.9999 6.59033 11.8799 6.60011 11.7674 6.63776C11.3138 6.78953 10.5437 7.06436 9.80837 7.40674C9.44068 7.57794 9.08347 7.76521 8.77959 7.96149C8.47438 8.15863 8.22937 8.36083 8.08 8.56L11.9198 11.4402ZM11.9198 11.4402C11.7314 11.6929 11.4947 11.9058 11.2235 12.0664C10.9523 12.227 10.6518 12.3322 10.3397 12.3759L10.3394 12.3759M11.9198 11.4402L10.3394 12.3759M10.3394 12.3759C10.2253 12.3922 10.1102 12.4005 9.99497 12.4005C9.54971 12.3994 9.11352 12.2745 8.73517 12.0398C8.3568 11.805 8.05118 11.4696 7.85248 11.0712C7.65378 10.6727 7.56983 10.2268 7.61001 9.7833C7.65019 9.33984 7.81291 8.9163 8.07999 8.56001L10.3394 12.3759ZM9.43999 10.7467L9.50937 10.7987L9.51281 10.7953C9.59214 10.8439 9.67843 10.8805 9.76888 10.9036C9.88761 10.934 10.0112 10.9408 10.1325 10.9234C10.2538 10.9061 10.3706 10.8651 10.476 10.8026C10.5815 10.7402 10.6736 10.6575 10.7472 10.5595L10.7472 10.5595L10.7488 10.5573C10.795 10.492 10.8362 10.3912 10.8737 10.2719C10.9121 10.1499 10.9496 9.99913 10.9853 9.82725C11.0567 9.4833 11.122 9.04908 11.1729 8.57943L11.191 8.41198L11.0353 8.47622C10.5988 8.65629 10.2004 8.84054 9.89013 9.00554C9.7351 9.08799 9.60083 9.1663 9.49439 9.23748C9.39024 9.30713 9.30489 9.37502 9.25501 9.43783L9.25498 9.4378L9.25332 9.44001C9.17978 9.53807 9.12628 9.64965 9.09586 9.76838C9.06544 9.88711 9.0587 10.0107 9.07604 10.132C9.09337 10.2533 9.13443 10.3701 9.19688 10.4755C9.25933 10.581 9.34194 10.6731 9.43999 10.7467Z" fill="#3DD498" stroke="white" stroke-width="0.2"/>
</svg>
