<svg width="20" height="20" viewBox="0 0 20 20" fill="none" xmlns="http://www.w3.org/2000/svg">
<path d="M9.99994 0C8.02213 0 6.08874 0.58649 4.44425 1.6853C2.79976 2.78412 1.51804 4.3459 0.761162 6.17317C0.00428708 8.00043 -0.193746 10.0111 0.192106 11.9509C0.577957 13.8907 1.53036 15.6725 2.92889 17.0711C4.32741 18.4696 6.10923 19.422 8.04904 19.8079C9.98885 20.1937 11.9995 19.9957 13.8268 19.2388C15.654 18.4819 17.2158 17.2002 18.3146 15.5557C19.4134 13.9112 19.9999 11.9778 19.9999 10C19.9969 7.34875 18.9424 4.80694 17.0677 2.93222C15.193 1.0575 12.6512 0.00297764 9.99994 0V0ZM9.99994 18.3333C8.35177 18.3333 6.7406 17.8446 5.3702 16.9289C3.99979 16.0132 2.93169 14.7117 2.30096 13.189C1.67023 11.6663 1.5052 9.99076 1.82674 8.37425C2.14829 6.75774 2.94196 5.27288 4.10739 4.10744C5.27283 2.94201 6.75769 2.14833 8.37419 1.82679C9.9907 1.50525 11.6662 1.67027 13.189 2.301C14.7117 2.93173 16.0132 3.99984 16.9288 5.37025C17.8445 6.74066 18.3333 8.35182 18.3333 10C18.3307 12.2094 17.452 14.3275 15.8897 15.8898C14.3275 17.452 12.2093 18.3308 9.99994 18.3333Z" fill="#61707D"/>
<path d="M10 3.33337C8.23251 3.33536 6.53797 4.03838 5.28816 5.28819C4.03834 6.538 3.33533 8.23254 3.33334 10H5.00001C5.00001 9.01113 5.29326 8.04443 5.84266 7.22219C6.39207 6.39994 7.17296 5.75908 8.08659 5.38064C9.00022 5.0022 10.0056 4.90319 10.9755 5.09611C11.9454 5.28904 12.8363 5.76524 13.5355 6.46451C14.2348 7.16377 14.711 8.05468 14.9039 9.02459C15.0969 9.99449 14.9978 10.9998 14.6194 11.9135C14.241 12.8271 13.6001 13.608 12.7779 14.1574C11.9556 14.7068 10.9889 15 10 15V16.6667C11.7681 16.6667 13.4638 15.9643 14.7141 14.7141C15.9643 13.4638 16.6667 11.7681 16.6667 10C16.6667 8.23193 15.9643 6.53624 14.7141 5.286C13.4638 4.03575 11.7681 3.33337 10 3.33337Z" fill="#61707D"/>
<path d="M12 11.5C12.6392 10.6478 12.7953 8.32491 12.8327 7.36585C12.838 7.23107 12.8105 7.09703 12.7526 6.97523C12.6946 6.85343 12.608 6.74751 12.5001 6.66658C12.3922 6.58564 12.2662 6.53211 12.1331 6.51057C11.9999 6.48903 11.8636 6.50014 11.7356 6.54293C10.8254 6.84751 8.63917 7.64772 8 8.50001C7.72179 8.87114 7.55228 9.31234 7.51043 9.77428C7.46858 10.2362 7.55603 10.7007 7.76301 11.1158C7.96998 11.5309 8.28833 11.8802 8.68246 12.1248C9.07659 12.3693 9.53097 12.4994 9.9948 12.5005C10.1148 12.5005 10.2347 12.4919 10.3536 12.4749C10.6788 12.4294 10.9918 12.3198 11.2745 12.1524C11.5571 11.9851 11.8037 11.7633 12 11.5ZM9.50001 10.6667C9.41246 10.601 9.3387 10.5188 9.28294 10.4246C9.22719 10.3304 9.19052 10.2262 9.17505 10.1179C9.15957 10.0095 9.16558 9.89921 9.19274 9.7932C9.2199 9.68719 9.26768 9.58756 9.33334 9.50001C9.49199 9.30022 10.2047 8.9271 11.0734 8.56866C10.9722 9.50356 10.814 10.2922 10.6672 10.4995C10.6015 10.587 10.5193 10.6608 10.4251 10.7166C10.3309 10.7723 10.2267 10.809 10.1184 10.8245C10.01 10.8399 9.89972 10.8339 9.79371 10.8068C9.6877 10.7796 9.58808 10.7318 9.50053 10.6662L9.50001 10.6667Z" fill="#61707D"/>
</svg>
