<svg width="18" height="18" viewBox="0 0 18 18" fill="none" xmlns="http://www.w3.org/2000/svg">
<g clip-path="url(#clip0)">
<path d="M8.99994 0C7.21991 0 5.47986 0.527841 3.99982 1.51677C2.51978 2.50571 1.36623 3.91131 0.685041 5.55585C0.00385379 7.20038 -0.174376 9.00998 0.17289 10.7558C0.520157 12.5016 1.37732 14.1053 2.63599 15.364C3.89466 16.6226 5.49831 17.4798 7.24413 17.8271C8.98996 18.1743 10.7996 17.9961 12.4441 17.3149C14.0886 16.6337 15.4942 15.4802 16.4832 14.0001C17.4721 12.5201 17.9999 10.78 17.9999 9C17.9972 6.61387 17.0482 4.32625 15.3609 2.639C13.6737 0.951752 11.3861 0.00267987 8.99994 0V0ZM8.09995 10.2C7.78169 9.96131 7.57128 9.60596 7.51502 9.21213C7.45876 8.81831 7.56125 8.41826 7.79995 8.1C8.29682 7.43728 10.7999 6.6 10.7999 6.6C10.7999 6.6 10.6968 9.23728 10.1999 9.9C9.96125 10.2183 9.6059 10.4287 9.21208 10.4849C8.81825 10.5412 8.41821 10.4387 8.09995 10.2ZM9.04682 15.7969V14.2969C10.0852 14.2969 11.1002 13.989 11.9636 13.4121C12.8269 12.8352 13.4998 12.0153 13.8972 11.056C14.2945 10.0967 14.3985 9.04105 14.1959 8.02265C13.9934 7.00425 13.4933 6.06879 12.7591 5.33456C12.0249 4.60034 11.0894 4.10033 10.071 3.89775C9.05264 3.69518 7.99704 3.79915 7.03773 4.19651C6.07842 4.59387 5.25849 5.26677 4.68161 6.13013C4.10473 6.99349 3.79683 8.00852 3.79683 9.04688H2.29683C2.29683 7.71185 2.69271 6.40681 3.43441 5.29678C4.17611 4.18674 5.23031 3.32158 6.46371 2.81069C7.69711 2.2998 9.05431 2.16612 10.3637 2.42657C11.673 2.68702 12.8758 3.3299 13.8198 4.2739C14.7638 5.21791 15.4067 6.42064 15.6671 7.73002C15.9276 9.03939 15.7939 10.3966 15.283 11.63C14.7721 12.8634 13.9069 13.9176 12.7969 14.6593C11.6869 15.401 10.3818 15.7969 9.04682 15.7969Z" fill="white"/>
</g>
<defs>
<clipPath id="clip0">
<rect width="18" height="18" fill="white"/>
</clipPath>
</defs>
</svg>
