<svg width="24" height="26" viewBox="0 0 24 26" fill="none" xmlns="http://www.w3.org/2000/svg">
    <path d="M0.543992 0C0.248913 0.0273886 -0.00127324 0.299328 4.87563e-06 0.59127V20.99C0.00332888 21.2177 0.152997 21.4369 0.36579 21.5259L10.8704 25.9604C11.231 26.1111 11.6995 25.8103 11.7051 25.4245V21.5813L16.2071 21.5996C16.5214 21.5995 16.8073 21.3179 16.8073 21.0083V13.3034C16.8118 12.991 16.5242 12.7037 16.2071 12.7037C15.8899 12.7037 15.6023 12.991 15.6068 13.3034V20.4171L11.7051 20.3987V5.02577C11.7054 4.79502 11.555 4.57085 11.3393 4.48071L3.53592 1.18254H15.6068V8.57337C15.6023 8.88574 15.8899 9.17305 16.2071 9.17305C16.5242 9.17305 16.8118 8.88574 16.8073 8.57337V0.59127C16.8073 0.281692 16.5214 2.95455e-05 16.2071 0C10.9873 0 5.75977 0 0.543992 0ZM1.20053 1.47817L10.5046 5.40456V24.5284L1.20053 20.602V1.47817ZM20.0431 7.67724C19.8054 7.69798 19.5891 7.87199 19.5209 8.09725C19.4527 8.3225 19.5369 8.5848 19.7242 8.73042L21.722 10.3472C19.0661 10.3472 16.4016 10.3472 13.7498 10.3472C13.4354 10.3616 13.1627 10.6565 13.1774 10.9662C13.1922 11.2758 13.4917 11.5443 13.806 11.5297H21.722L19.7242 13.1372C19.4811 13.3356 19.4432 13.7339 19.6445 13.9733C19.8459 14.2128 20.2502 14.2502 20.4933 14.0518L23.7948 11.3911C24.0684 11.1702 24.0684 10.6975 23.7948 10.4765L20.4933 7.81582C20.3704 7.71249 20.2039 7.66122 20.0431 7.67724Z" fill="#61707D"/>
</svg>
