<svg width="40" height="40" viewBox="0 0 40 40" fill="none" xmlns="http://www.w3.org/2000/svg">
    <path d="M28.3254 13.4814L27.8974 12.0727C27.3537 10.4725 25.6158 9.61611 24.0156 10.1598C23.1154 10.4656 22.4085 11.1725 22.1027 12.0727L21.6747 13.4814C21.3145 14.6694 21.2389 15.9254 21.454 17.148C21.6502 18.1774 22.3037 19.0617 23.23 19.5514L22.7507 30.2667C22.6865 30.8648 22.8805 31.4619 23.284 31.908C24.1518 32.8572 25.6248 32.9232 26.574 32.0554C26.6253 32.0085 26.6745 31.9594 26.7214 31.908C27.1159 31.4745 27.3095 30.8949 27.2547 30.3114L26.7727 19.55C27.6978 19.0601 28.3502 18.1764 28.546 17.148C28.7611 15.9254 28.6855 14.6694 28.3254 13.4814ZM27.2327 16.916C27.0884 17.6555 26.5614 18.2623 25.8494 18.5087C25.5791 18.6103 25.405 18.8743 25.418 19.1627L25.9247 30.4167C25.948 30.6374 25.8752 30.8575 25.7247 31.0207C25.3233 31.4181 24.6768 31.4181 24.2754 31.0207C24.1174 30.8444 24.0456 30.607 24.0794 30.3727L24.582 19.1627C24.595 18.8743 24.421 18.6103 24.1507 18.5087C23.4387 18.2623 22.9117 17.6555 22.7674 16.916C22.589 15.901 22.6519 14.8583 22.9507 13.872L23.3787 12.4627C23.7099 11.5673 24.7042 11.1099 25.5997 11.441C26.0731 11.6161 26.4463 11.9894 26.6214 12.4627L27.0494 13.872C27.3479 14.8584 27.4107 15.901 27.2327 16.916Z" fill="white"/>
    <path d="M18 10C17.6319 10 17.3334 10.2985 17.3334 10.6667V16.3907L15.5287 18.1953C15.3952 18.3283 15.3242 18.5118 15.3334 18.7L15.9167 30.3667C15.9306 30.6183 15.8393 30.8643 15.6647 31.046C15.2998 31.4142 14.7055 31.4168 14.3372 31.0518C14.3352 31.0499 14.3333 31.0479 14.3314 31.046C14.1567 30.8643 14.0655 30.6183 14.0794 30.3667L14.6667 18.7C14.676 18.5118 14.6053 18.3285 14.472 18.1953L12.6667 16.3907V10.6667C12.6667 10.2985 12.3682 10 12 10C11.6319 10 11.3334 10.2985 11.3334 10.6667V16.6667C11.3334 16.8435 11.4037 17.013 11.5287 17.138L13.3194 18.9293L12.7507 30.302C12.6902 31.5443 13.6482 32.6004 14.8905 32.6609C16.1327 32.7214 17.1889 31.7634 17.2494 30.5212C17.253 30.4482 17.253 30.3751 17.2494 30.3021L16.6807 18.9294L18.4714 17.1381C18.5964 17.0131 18.6667 16.8436 18.6667 16.6668V10.6668C18.6667 10.2985 18.3682 10 18 10Z" fill="white"/>
    <path d="M14 10C13.6319 10 13.3334 10.2985 13.3334 10.6667V16C13.3334 16.3682 13.6319 16.6667 14 16.6667C14.3682 16.6667 14.6667 16.3682 14.6667 16V10.6667C14.6667 10.2985 14.3682 10 14 10Z" fill="white"/>
    <path d="M16 10C15.6319 10 15.3334 10.2985 15.3334 10.6667V16C15.3334 16.3682 15.6319 16.6667 16 16.6667C16.3682 16.6667 16.6667 16.3682 16.6667 16V10.6667C16.6667 10.2985 16.3682 10 16 10Z" fill="white"/>
    <path d="M20 0C8.95433 0 0 8.95433 0 20C0 31.0457 8.95433 40 20 40C31.0457 40 40 31.0457 40 20C39.9875 8.9595 31.0405 0.0125 20 0ZM20 38.6667C9.69067 38.6667 1.33333 30.3093 1.33333 20C1.33333 9.69067 9.69067 1.33333 20 1.33333C30.3093 1.33333 38.6667 9.69067 38.6667 20C38.6549 30.3044 30.3044 38.6549 20 38.6667Z" fill="white"/>
    <path d="M22.1641 32.5143C22.1284 32.1479 21.8023 31.8798 21.4358 31.9156C21.4272 31.9164 21.4186 31.9174 21.4101 31.9186L21.4127 31.9179C20.4741 32.0269 19.526 32.0269 18.5874 31.9179C18.2215 31.875 17.8903 32.1367 17.8474 32.5026C17.8045 32.8684 18.0662 33.1996 18.432 33.2425C19.473 33.3641 20.5245 33.3641 21.5654 33.2425C21.9318 33.2069 22.1999 32.8808 22.1641 32.5143Z" fill="white"/>
    <path d="M30.2 11.4093C29.9634 11.1272 29.5429 11.0903 29.2608 11.3269C29.2599 11.3277 29.259 11.3285 29.258 11.3293C28.9766 11.5666 28.9407 11.9871 29.178 12.2686C33.1976 17.0403 32.8901 24.096 28.4707 28.5C28.2098 28.7599 28.2091 29.1821 28.469 29.443C28.7289 29.7038 29.1512 29.7045 29.412 29.4446C34.3234 24.5519 34.6659 16.7117 30.2 11.4093Z" fill="white"/>
    <path d="M15.532 8.8119C15.5316 8.8119 15.5313 8.81183 15.531 8.81183C15.5304 8.81183 15.5299 8.8119 15.5293 8.8119H15.532Z" fill="white"/>
    <path d="M23.1446 7.03931C20.5392 6.4149 17.8067 6.58273 15.2973 7.52131C14.9526 7.6509 14.7784 8.0354 14.908 8.37998C15.0056 8.63973 15.254 8.81164 15.5314 8.81189C15.6111 8.81148 15.6901 8.7969 15.7646 8.76865C18.0245 7.92356 20.4851 7.77265 22.8313 8.33531C23.1892 8.42181 23.5495 8.2019 23.636 7.84398C23.7225 7.48606 23.5025 7.12581 23.1446 7.03931Z" fill="white"/>
    <path d="M11.4994 28.4667C9.25197 26.2231 7.99238 23.1757 8.00005 20C7.99346 17.4628 8.79713 14.9898 10.2941 12.9413C10.5153 12.647 10.4561 12.2291 10.1617 12.0078C9.86739 11.7866 9.44947 11.8458 9.22822 12.1402C9.2243 12.1454 9.22047 12.1507 9.21672 12.156C5.36229 17.455 5.92946 24.7693 10.5547 29.4107C10.8154 29.6715 11.2382 29.6717 11.4991 29.411C11.7599 29.1503 11.7601 28.7275 11.4994 28.4667Z" fill="white"/>
</svg>
