<svg width="22" height="15" viewBox="0 0 22 15" fill="none" xmlns="http://www.w3.org/2000/svg">
    <path d="M13.1314 9.37891C14.1601 8.71759 14.8258 7.5753 14.8258 6.25265C14.8258 4.17849 13.1314 2.49512 11.0437 2.49512C8.95604 2.49512 7.26168 4.17849 7.26168 6.25265C7.26168 7.54524 7.92732 8.68753 8.95604 9.37891C6.65655 10.2206 5.02271 12.415 5.02271 15.0002H6.02117C6.02117 12.2346 8.26014 10.0102 11.0437 10.0102C13.8273 10.0102 16.0663 12.2346 16.0663 15.0002H17.0648C17.0648 12.415 15.4309 10.2206 13.1314 9.37891ZM8.2904 6.25265C8.2904 4.74963 9.53091 3.51717 11.0437 3.51717C12.5566 3.51717 13.7971 4.74963 13.7971 6.25265C13.7971 7.75566 12.5566 9.01819 11.0437 9.01819C9.53091 9.01819 8.2904 7.78572 8.2904 6.25265Z" fill="#3DD498"/>
    <path d="M18.1537 6.88379C19.1825 6.22247 19.8481 5.08018 19.8481 3.75753C19.8481 1.68337 18.1537 0 16.0661 0C15.0676 0 14.1599 0.390783 13.464 1.05211C13.2219 1.29259 13.0102 1.56313 12.8286 1.86373C13.1312 1.98398 13.4337 2.13428 13.706 2.3447C13.8876 2.0441 14.0994 1.80361 14.3717 1.59319C14.8255 1.23247 15.4307 1.02205 16.0358 1.02205C17.5486 1.02205 18.7891 2.25452 18.7891 3.75753C18.7891 5.02006 17.942 6.07217 16.762 6.40283C16.5199 6.46295 16.2778 6.49301 16.0055 6.49301C15.9148 6.49301 15.824 6.49301 15.7332 6.49301C15.703 6.85373 15.6727 7.21446 15.5517 7.54512C15.703 7.54512 15.824 7.51506 15.9753 7.51506C16.1871 7.51506 16.3686 7.54512 16.5804 7.54512C19.0614 7.84572 20.9979 9.94994 20.9979 12.5051H21.9963C22.0871 9.91988 20.4532 7.72548 18.1537 6.88379Z" fill="#3DD498"/>
    <path d="M6.02103 7.51506C6.17231 7.51506 6.32359 7.54512 6.44462 7.54512C6.35385 7.21446 6.29334 6.85373 6.26308 6.49301C6.17231 6.49301 6.08154 6.49301 5.99077 6.49301C5.71847 6.49301 5.47641 6.46295 5.23436 6.40283C4.08462 6.07217 3.20718 5.02006 3.20718 3.75753C3.20718 2.25452 4.4477 1.02205 5.96052 1.02205C6.5959 1.02205 7.17077 1.23247 7.62462 1.59319C7.89693 1.80361 8.10872 2.0441 8.29026 2.3447C8.56257 2.16434 8.86513 2.01404 9.1677 1.86373C8.98616 1.56313 8.77437 1.29259 8.53231 1.05211C7.86667 0.420843 6.92872 0 5.93026 0C3.84257 0 2.14821 1.68337 2.14821 3.75753C2.14821 5.05012 2.81385 6.19241 3.84257 6.88379C1.63385 7.72548 0 9.91988 0 12.5051H0.998462C0.998462 9.94994 2.93487 7.84572 5.4159 7.54512C5.6277 7.54512 5.80924 7.51506 6.02103 7.51506Z" fill="#3DD498"/>
</svg>
