<svg width="23" height="23" viewBox="0 0 23 23" fill="none" xmlns="http://www.w3.org/2000/svg">
    <path d="M11.5077 4.28464e-05C9.23169 5.8084e-05 7.0068 0.674982 5.11437 1.93947C3.22194 3.20395 1.74698 5.0012 0.875984 7.10395C0.00499264 9.2067 -0.222903 11.5205 0.221115 13.7528C0.665133 15.9851 1.76112 18.0355 3.37049 19.6449C5.53003 21.7963 8.45491 23.0029 11.5032 23C14.5514 22.9971 17.474 21.7849 19.6295 19.6295C21.7849 17.474 22.9971 14.5515 23 11.5032C23.0029 8.45495 21.7963 5.53008 19.6449 3.37055C18.5788 2.29861 17.3107 1.44877 15.9139 0.870217C14.5172 0.291669 13.0195 -0.00409609 11.5077 4.28464e-05ZM21.856 10.936H17.8401C17.7081 9.45255 17.0588 8.06277 16.0057 7.0097C14.9527 5.95663 13.5629 5.30733 12.0795 5.17535V1.15955C14.6266 1.30015 17.0325 2.37529 18.8363 4.17914C20.6402 5.983 21.7153 8.3888 21.856 10.936ZM7.81813 15.1973C7.08839 14.4676 6.59143 13.5379 6.39009 12.5257C6.18875 11.5135 6.29208 10.4644 6.68701 9.51096C7.08193 8.55751 7.75072 7.74259 8.6088 7.16924C9.46687 6.59589 10.4757 6.28987 11.5077 6.28987C12.5397 6.28987 13.5485 6.59589 14.4066 7.16924C15.2647 7.74259 15.9335 8.55751 16.3284 9.51096C16.7233 10.4644 16.8266 11.5135 16.6253 12.5257C16.424 13.5379 15.927 14.4676 15.1973 15.1973C14.2179 16.1744 12.8911 16.7231 11.5077 16.7231C10.1243 16.7231 8.79745 16.1744 7.81813 15.1973ZM4.17912 4.17913C5.97886 2.36932 8.38707 1.29311 10.9359 1.15955V5.17535C9.45251 5.30733 8.06273 5.95663 7.00966 7.0097C5.95659 8.06277 5.30727 9.45255 5.1753 10.936H1.15944C1.29303 8.38709 2.36928 5.97887 4.17912 4.17913ZM1.15944 12.0795H5.1753C5.30726 13.5629 5.95656 14.9527 7.00964 16.0058C8.06271 17.0589 9.45251 17.7082 10.9359 17.8401V21.8558C8.38878 21.7152 5.98298 20.64 4.17912 18.8362C2.37526 17.0324 1.30008 14.6266 1.15944 12.0795ZM18.8363 18.8363C17.0365 20.6461 14.6283 21.7224 12.0795 21.8559V17.8401C13.5629 17.7082 14.9527 17.0589 16.0058 16.0058C17.0588 14.9527 17.7081 13.5629 17.8401 12.0795H21.8558C21.7223 14.6284 20.6461 17.0366 18.8363 18.8363Z" fill="#61707D"/>
</svg>
