<svg width="20" height="20" viewBox="0 0 20 20" fill="none" xmlns="http://www.w3.org/2000/svg">
    <path d="M6.95671 3.39104L8.20439 0.312117C8.22754 0.251782 8.2625 0.196666 8.30721 0.149988C8.35191 0.103311 8.40548 0.0660086 8.46478 0.0402621C8.52408 0.0145157 8.58791 0.000841084 8.65255 3.75935e-05C8.7172 -0.000765897 8.78135 0.0113178 8.84127 0.0355825C8.90119 0.0598472 8.95567 0.0958062 9.00153 0.141358C9.04738 0.18691 9.0837 0.241141 9.10834 0.300882C9.13299 0.360622 9.14548 0.424675 9.14508 0.489295C9.14468 0.553916 9.1314 0.617809 9.10601 0.67724L7.85844 3.75618C7.80862 3.87372 7.71457 3.96696 7.59658 4.01578C7.47859 4.06461 7.34613 4.0651 7.22778 4.01715C7.10943 3.96921 7.01468 3.87667 6.96399 3.75951C6.9133 3.64236 6.91072 3.50997 6.95682 3.39093L6.95671 3.39104ZM9.81777 4.02429C9.87696 4.04841 9.94033 4.0606 10.0042 4.06018C10.0682 4.05976 10.1314 4.04672 10.1902 4.02182C10.2491 3.99692 10.3024 3.96065 10.3472 3.91508C10.392 3.86951 10.4274 3.81555 10.4513 3.75629L11.6989 0.677348C11.7242 0.617917 11.7375 0.554024 11.7379 0.489403C11.7383 0.424783 11.7258 0.36073 11.7012 0.30099C11.6765 0.241249 11.6402 0.187018 11.5944 0.141466C11.5485 0.0959143 11.494 0.0599553 11.4341 0.0356906C11.3742 0.0114259 11.31 -0.000657842 11.2454 0.000145648C11.1808 0.000949139 11.1169 0.0146237 11.0576 0.0403702C10.9983 0.0661167 10.9448 0.103419 10.9 0.150096C10.8553 0.196774 10.8204 0.25189 10.7972 0.312225L9.54966 3.39115C9.50124 3.51064 9.50228 3.64446 9.55256 3.76319C9.60284 3.88191 9.69824 3.97581 9.81777 4.02422V4.02429ZM12.4107 4.02429C12.4699 4.04841 12.5332 4.0606 12.5971 4.06018C12.6611 4.05976 12.7243 4.04672 12.7831 4.02182C12.842 3.99692 12.8954 3.96065 12.9402 3.91508C12.985 3.86951 13.0203 3.81555 13.0442 3.75629L14.2919 0.67724C14.3173 0.617809 14.3306 0.553916 14.331 0.489295C14.3314 0.424675 14.3189 0.360622 14.2942 0.300882C14.2696 0.241141 14.2333 0.18691 14.1874 0.141358C14.1416 0.0958062 14.0871 0.0598472 14.0272 0.0355825C13.9672 0.0113178 13.9031 -0.000765897 13.8384 3.75935e-05C13.7738 0.000841084 13.71 0.0145157 13.6507 0.0402621C13.5914 0.0660086 13.5378 0.103311 13.4931 0.149988C13.4484 0.196666 13.4134 0.251782 13.3903 0.312117L12.1427 3.39104C12.1187 3.4502 12.1066 3.51351 12.1071 3.57735C12.1075 3.6412 12.1206 3.70432 12.1455 3.76311C12.1704 3.82191 12.2066 3.87523 12.2521 3.92004C12.2976 3.96484 12.3515 4.00024 12.4107 4.02422V4.02429ZM14.9911 19.0274H5.00973C4.88071 19.0274 4.75697 19.0787 4.66573 19.1699C4.5745 19.2611 4.52324 19.3847 4.52324 19.5137C4.52324 19.6427 4.5745 19.7664 4.66573 19.8576C4.75697 19.9488 4.88071 20 5.00973 20H14.9911C15.1202 20 15.2439 19.9488 15.3351 19.8576C15.4264 19.7664 15.4776 19.6427 15.4776 19.5137C15.4776 19.3847 15.4264 19.2611 15.3351 19.1699C15.2439 19.0787 15.1202 19.0274 14.9911 19.0274ZM20 5.93095V7.95749C20 10.6085 18.9464 13.151 17.0711 15.0256C15.1957 16.9002 12.6522 17.9533 10 17.9533C7.34784 17.9533 4.8043 16.9002 2.92893 15.0256C1.05357 13.151 0 10.6085 0 7.95749V5.93088C5.15827e-05 5.80193 0.0513249 5.67828 0.142549 5.58711C0.233774 5.49593 0.357484 5.4447 0.486486 5.44466H19.5135C19.6425 5.4447 19.7662 5.49594 19.8575 5.58713C19.9487 5.67832 20 5.80199 20 5.93095ZM0.972973 7.47127H19.027V6.41723H0.972973V7.47127ZM19.0141 8.44384H3.88973C4.00125 9.89727 4.63118 11.2624 5.66487 12.2906C5.71119 12.3355 5.74811 12.3892 5.77349 12.4485C5.79887 12.5077 5.8122 12.5715 5.8127 12.636C5.8132 12.7005 5.80086 12.7644 5.7764 12.8241C5.75194 12.8838 5.71585 12.938 5.67023 12.9836C5.6246 13.0292 5.57036 13.0653 5.51066 13.0897C5.45096 13.1142 5.38698 13.1265 5.32247 13.126C5.25795 13.1255 5.19418 13.1122 5.13486 13.0868C5.07554 13.0614 5.02186 13.0245 4.97695 12.9782C3.76027 11.768 3.02699 10.1558 2.91459 8.44377H0.985946C1.11046 10.7494 2.11445 12.9196 3.79127 14.5076C5.46809 16.0957 7.69015 16.9808 10.0001 16.9808C12.31 16.9808 14.5321 16.0957 16.2089 14.5076C17.8857 12.9196 18.8897 10.7494 19.0142 8.44377L19.0141 8.44384Z" fill="white"/>
</svg>
