<svg width="18" height="22" viewBox="0 0 18 22" fill="none" xmlns="http://www.w3.org/2000/svg">
    <path d="M17.1271 5.71864H3.72771C2.48611 5.71864 1.47107 4.70814 1.47107 3.462C1.47107 2.22039 2.48158 1.20536 3.72771 1.20536H17.1316C17.467 1.20536 17.7343 0.933471 17.7343 0.602678C17.7343 0.267353 17.4624 0 17.1316 0H3.72771C1.81999 0 0.265717 1.55427 0.265717 3.462V18.538C0.265717 20.4457 1.81999 22 3.72771 22H17.1316C17.467 22 17.7343 21.7281 17.7343 21.3973V6.32132C17.7298 5.99053 17.4624 5.71864 17.1271 5.71864ZM16.5244 20.7946H3.72771C2.48611 20.7946 1.47107 19.7841 1.47107 18.538V6.09022C2.07828 6.61133 2.86675 6.92853 3.72771 6.92853H16.5244V20.7946Z" fill="#3DD498"/>
    <path d="M3.91805 2.9137C3.58272 2.9137 3.31537 3.18558 3.31537 3.51637C3.31537 3.84717 3.58725 4.11905 3.91805 4.11905H15.2375C15.5728 4.11905 15.8402 3.84717 15.8402 3.51637C15.8402 3.18558 15.5683 2.9137 15.2375 2.9137H3.91805Z" fill="#3DD498"/>
    <path d="M6.03874 18.1574C6.10672 18.18 6.17469 18.1936 6.24266 18.1936C6.49188 18.1936 6.72299 18.0396 6.80908 17.7949L7.54317 15.7421H10.3708C10.3934 15.7421 10.4206 15.7421 10.4433 15.7376L11.1774 17.7949C11.2634 18.0396 11.4991 18.1936 11.7438 18.1936C11.8117 18.1936 11.8797 18.18 11.9477 18.1574C12.2604 18.0441 12.4235 17.6997 12.3102 17.387L9.56417 9.68816C9.55964 9.67004 9.55058 9.65191 9.54152 9.63378C9.53699 9.62472 9.53245 9.61566 9.52792 9.6066C9.52339 9.59753 9.51886 9.58847 9.51433 9.57941C9.5098 9.57034 9.50073 9.56128 9.4962 9.54769C9.49167 9.54316 9.48714 9.53409 9.48261 9.52956C9.47808 9.5205 9.46901 9.51144 9.45995 9.50237C9.45542 9.49784 9.45089 9.48878 9.44183 9.48425C9.4373 9.47519 9.42823 9.47065 9.41917 9.46159C9.41011 9.45253 9.40558 9.448 9.39651 9.43893C9.39198 9.4344 9.38292 9.42987 9.37839 9.42081C9.36932 9.41174 9.36026 9.40721 9.3512 9.39815C9.34667 9.39362 9.3376 9.38909 9.33307 9.38456C9.32401 9.38003 9.31495 9.37096 9.30588 9.36643C9.29682 9.3619 9.28776 9.35737 9.2787 9.35284C9.26963 9.34831 9.26057 9.34377 9.25151 9.33924C9.23338 9.33018 9.21526 9.32112 9.19713 9.31659H9.1926C9.17447 9.31205 9.15635 9.30752 9.13822 9.30299C9.12916 9.30299 9.12463 9.29846 9.11557 9.29846C9.10197 9.29393 9.09291 9.29393 9.07931 9.2894C9.07025 9.2894 9.06119 9.2894 9.05213 9.28487C9.04306 9.28487 9.02947 9.28033 9.02041 9.28033C9.01134 9.28033 9.00228 9.28033 8.99322 9.28033C8.98416 9.28033 8.97509 9.28033 8.9615 9.28033C8.95244 9.28033 8.93884 9.28033 8.92978 9.28487C8.92072 9.28487 8.91165 9.28487 8.90259 9.2894C8.889 9.2894 8.87993 9.29393 8.86634 9.29846C8.85728 9.29846 8.85274 9.30299 8.84368 9.30299C8.82556 9.30752 8.80743 9.31205 8.79384 9.31659H8.78931C8.77118 9.32112 8.75305 9.33018 8.73493 9.33924C8.72587 9.34377 8.7168 9.34831 8.70774 9.35284C8.69868 9.35737 8.68961 9.3619 8.68055 9.36643C8.67149 9.37096 8.66243 9.38003 8.64883 9.38456C8.6443 9.38909 8.63524 9.39362 8.63071 9.39815C8.62164 9.40721 8.61258 9.41174 8.60352 9.42081C8.59899 9.42534 8.58992 9.42987 8.58539 9.43893C8.57633 9.448 8.5718 9.45253 8.56274 9.46159C8.55367 9.47065 8.54914 9.47519 8.54008 9.48425C8.53555 9.48878 8.53101 9.49784 8.52195 9.50237C8.51289 9.51144 8.50836 9.5205 8.49929 9.52956C8.49476 9.53409 8.49023 9.54316 8.4857 9.54769C8.48117 9.55675 8.47211 9.56581 8.46758 9.57488C8.46304 9.58394 8.45851 9.593 8.45398 9.60206C8.44945 9.61113 8.44492 9.62019 8.44039 9.62925C8.43132 9.64738 8.42226 9.6655 8.41773 9.68363L5.66264 17.3825C5.56295 17.6997 5.72608 18.0441 6.03874 18.1574ZM8.99775 11.682L10.0173 14.5368H7.97365L8.99775 11.682Z" fill="#3DD498"/>
</svg>
