<svg width="18" height="22" viewBox="0 0 18 22" fill="none" xmlns="http://www.w3.org/2000/svg">
<path d="M17.1271 5.71864H3.7277C2.4861 5.71864 1.47106 4.70814 1.47106 3.462C1.47106 2.22039 2.48157 1.20536 3.7277 1.20536H17.1316C17.4669 1.20536 17.7343 0.933471 17.7343 0.602678C17.7343 0.267353 17.4624 0 17.1316 0H3.7277C1.81998 0 0.265705 1.55427 0.265705 3.462V18.538C0.265705 20.4457 1.81998 22 3.7277 22H17.1316C17.4669 22 17.7343 21.7281 17.7343 21.3973V6.32132C17.7298 5.99053 17.4624 5.71864 17.1271 5.71864ZM16.5244 20.7946H3.7277C2.4861 20.7946 1.47106 19.7841 1.47106 18.538V6.09022C2.07827 6.61133 2.86674 6.92853 3.7277 6.92853H16.5244V20.7946Z" fill="#61707D"/>
<path d="M3.91802 2.9137C3.5827 2.9137 3.31534 3.18558 3.31534 3.51637C3.31534 3.84717 3.58723 4.11905 3.91802 4.11905H15.2375C15.5728 4.11905 15.8402 3.84717 15.8402 3.51637C15.8402 3.18558 15.5683 2.9137 15.2375 2.9137H3.91802Z" fill="#61707D"/>
<path d="M6.03872 18.1574C6.10669 18.18 6.17466 18.1936 6.24263 18.1936C6.49186 18.1936 6.72296 18.0396 6.80906 17.7949L7.54315 15.7421H10.3707C10.3934 15.7421 10.4206 15.7421 10.4432 15.7376L11.1773 17.7949C11.2634 18.0396 11.4991 18.1936 11.7438 18.1936C11.8117 18.1936 11.8797 18.18 11.9477 18.1574C12.2603 18.0441 12.4235 17.6997 12.3102 17.387L9.56415 9.68816C9.55962 9.67004 9.55056 9.65191 9.54149 9.63378C9.53696 9.62472 9.53243 9.61566 9.5279 9.6066C9.52337 9.59753 9.51884 9.58847 9.51431 9.57941C9.50978 9.57034 9.50071 9.56128 9.49618 9.54769C9.49165 9.54316 9.48712 9.53409 9.48259 9.52956C9.47805 9.5205 9.46899 9.51144 9.45993 9.50237C9.4554 9.49784 9.45087 9.48878 9.4418 9.48425C9.43727 9.47519 9.42821 9.47065 9.41915 9.46159C9.41008 9.45253 9.40555 9.448 9.39649 9.43893C9.39196 9.4344 9.3829 9.42987 9.37836 9.42081C9.3693 9.41174 9.36024 9.40721 9.35118 9.39815C9.34664 9.39362 9.33758 9.38909 9.33305 9.38456C9.32399 9.38003 9.31492 9.37096 9.30586 9.36643C9.2968 9.3619 9.28774 9.35737 9.27867 9.35284C9.26961 9.34831 9.26055 9.34377 9.25149 9.33924C9.23336 9.33018 9.21523 9.32112 9.19711 9.31659H9.19258C9.17445 9.31205 9.15633 9.30752 9.1382 9.30299C9.12914 9.30299 9.12461 9.29846 9.11554 9.29846C9.10195 9.29393 9.09289 9.29393 9.07929 9.2894C9.07023 9.2894 9.06117 9.2894 9.0521 9.28487C9.04304 9.28487 9.02945 9.28033 9.02038 9.28033C9.01132 9.28033 9.00226 9.28033 8.9932 9.28033C8.98413 9.28033 8.97507 9.28033 8.96147 9.28033C8.95241 9.28033 8.93882 9.28033 8.92976 9.28487C8.92069 9.28487 8.91163 9.28487 8.90257 9.2894C8.88897 9.2894 8.87991 9.29393 8.86632 9.29846C8.85725 9.29846 8.85272 9.30299 8.84366 9.30299C8.82553 9.30752 8.80741 9.31205 8.79381 9.31659H8.78928C8.77116 9.32112 8.75303 9.33018 8.73491 9.33924C8.72584 9.34377 8.71678 9.34831 8.70772 9.35284C8.69865 9.35737 8.68959 9.3619 8.68053 9.36643C8.67147 9.37096 8.6624 9.38003 8.64881 9.38456C8.64428 9.38909 8.63521 9.39362 8.63068 9.39815C8.62162 9.40721 8.61256 9.41174 8.60349 9.42081C8.59896 9.42534 8.5899 9.42987 8.58537 9.43893C8.57631 9.448 8.57177 9.45253 8.56271 9.46159C8.55365 9.47065 8.54912 9.47519 8.54006 9.48425C8.53552 9.48878 8.53099 9.49784 8.52193 9.50237C8.51287 9.51144 8.50834 9.5205 8.49927 9.52956C8.49474 9.53409 8.49021 9.54316 8.48568 9.54769C8.48115 9.55675 8.47208 9.56581 8.46755 9.57488C8.46302 9.58394 8.45849 9.593 8.45396 9.60206C8.44943 9.61113 8.4449 9.62019 8.44036 9.62925C8.4313 9.64738 8.42224 9.6655 8.41771 9.68363L5.66262 17.3825C5.56292 17.6997 5.72605 18.0441 6.03872 18.1574ZM8.99773 11.682L10.0173 14.5368H7.97363L8.99773 11.682Z" fill="#61707D"/>
</svg>
