<svg width="16" height="18" viewBox="0 0 16 18" fill="none" xmlns="http://www.w3.org/2000/svg">
<path d="M14.6494 4.67889H3.6863C2.67044 4.67889 1.83996 3.85211 1.83996 2.83254C1.83996 1.81668 2.66674 0.9862 3.6863 0.9862H14.6531C14.9275 0.9862 15.1462 0.763749 15.1462 0.4931C15.1462 0.218744 14.9238 0 14.6531 0H3.6863C2.12544 0 0.85376 1.27168 0.85376 2.83254V15.1675C0.85376 16.7283 2.12544 18 3.6863 18H14.6531C14.9275 18 15.1462 17.7775 15.1462 17.5069V5.17199C15.1425 4.90134 14.9238 4.67889 14.6494 4.67889ZM14.1563 17.0138H3.6863C2.67044 17.0138 1.83996 16.187 1.83996 15.1675V4.9829C2.33677 5.40927 2.98188 5.6688 3.6863 5.6688H14.1563V17.0138Z" fill="white"/>
<path d="M3.84202 2.38391C3.56767 2.38391 3.34892 2.60636 3.34892 2.87701C3.34892 3.14766 3.57137 3.37011 3.84202 3.37011H13.1034C13.3777 3.37011 13.5965 3.14766 13.5965 2.87701C13.5965 2.60636 13.374 2.38391 13.1034 2.38391H3.84202Z" fill="white"/>
<path d="M1.45454 4.90906H14.5455V17.1818H3.45454C2.34997 17.1818 1.45454 16.2864 1.45454 15.1818V4.90906Z" fill="white"/>
<path d="M5.57714 14.856C5.63275 14.8746 5.68836 14.8857 5.74398 14.8857C5.94789 14.8857 6.13697 14.7597 6.20742 14.5594L6.80803 12.8799H9.12152C9.14006 12.8799 9.1623 12.8799 9.18084 12.8762L9.78146 14.5594C9.8519 14.7597 10.0447 14.8857 10.2449 14.8857C10.3005 14.8857 10.3561 14.8746 10.4117 14.856C10.6676 14.7634 10.801 14.4816 10.7083 14.2258L8.46158 7.92669C8.45787 7.91186 8.45046 7.89703 8.44304 7.8822C8.43934 7.87479 8.43563 7.86737 8.43192 7.85996C8.42821 7.85254 8.42451 7.84513 8.4208 7.83771C8.41709 7.8303 8.40968 7.82288 8.40597 7.81176C8.40226 7.80805 8.39855 7.80064 8.39485 7.79693C8.39114 7.78952 8.38372 7.7821 8.37631 7.77469C8.3726 7.77098 8.36889 7.76356 8.36148 7.75986C8.35777 7.75244 8.35036 7.74873 8.34294 7.74132C8.33553 7.7339 8.33182 7.7302 8.3244 7.72278C8.3207 7.71907 8.31328 7.71537 8.30957 7.70795C8.30216 7.70054 8.29474 7.69683 8.28733 7.68941C8.28362 7.68571 8.27621 7.682 8.2725 7.67829C8.26508 7.67458 8.25767 7.66717 8.25025 7.66346C8.24284 7.65975 8.23542 7.65605 8.22801 7.65234C8.22059 7.64863 8.21318 7.64492 8.20576 7.64122C8.19093 7.6338 8.1761 7.62639 8.16127 7.62268H8.15757C8.14274 7.61897 8.12791 7.61526 8.11308 7.61156C8.10566 7.61156 8.10195 7.60785 8.09454 7.60785C8.08342 7.60414 8.076 7.60414 8.06488 7.60043C8.05746 7.60043 8.05005 7.60043 8.04263 7.59672C8.03522 7.59672 8.0241 7.59302 8.01668 7.59302C8.00927 7.59302 8.00185 7.59302 7.99444 7.59302C7.98702 7.59302 7.97961 7.59302 7.96848 7.59302C7.96107 7.59302 7.94995 7.59302 7.94253 7.59672C7.93512 7.59672 7.9277 7.59672 7.92029 7.60043C7.90916 7.60043 7.90175 7.60414 7.89063 7.60785C7.88321 7.60785 7.8795 7.61156 7.87209 7.61156C7.85726 7.61526 7.84243 7.61897 7.83131 7.62268H7.8276C7.81277 7.62639 7.79794 7.6338 7.78311 7.64122C7.77569 7.64492 7.76828 7.64863 7.76086 7.65234C7.75345 7.65605 7.74603 7.65975 7.73862 7.66346C7.7312 7.66717 7.72379 7.67458 7.71266 7.67829C7.70896 7.682 7.70154 7.68571 7.69783 7.68941C7.69042 7.69683 7.683 7.70054 7.67559 7.70795C7.67188 7.71166 7.66447 7.71537 7.66076 7.72278C7.65334 7.7302 7.64964 7.7339 7.64222 7.74132C7.63481 7.74873 7.6311 7.75244 7.62368 7.75986C7.61998 7.76356 7.61627 7.77098 7.60885 7.77469C7.60144 7.7821 7.59773 7.78952 7.59032 7.79693C7.58661 7.80064 7.5829 7.80805 7.57919 7.81176C7.57549 7.81918 7.56807 7.82659 7.56436 7.83401C7.56066 7.84142 7.55695 7.84884 7.55324 7.85625C7.54953 7.86367 7.54583 7.87108 7.54212 7.8785C7.5347 7.89333 7.52729 7.90816 7.52358 7.92299L5.26942 14.2221C5.18785 14.4816 5.32132 14.7634 5.57714 14.856ZM7.99814 9.558L8.83233 11.8937H7.16025L7.99814 9.558Z" fill="#3DD498"/>
</svg>
