<svg width="96" height="96" viewBox="0 0 96 96" fill="none" xmlns="http://www.w3.org/2000/svg">
<rect width="96" height="96" rx="16" fill="#FFC542"/>
<path d="M36.3254 21.4814L35.8974 20.0727C35.3537 18.4725 33.6158 17.6161 32.0156 18.1598C31.1154 18.4656 30.4085 19.1725 30.1027 20.0727L29.6747 21.4814C29.3145 22.6694 29.2389 23.9254 29.454 25.148C29.6502 26.1774 30.3037 27.0617 31.23 27.5514L30.7507 38.2667C30.6865 38.8648 30.8805 39.4619 31.284 39.908C32.1518 40.8572 33.6248 40.9232 34.5739 40.0554C34.6253 40.0085 34.6744 39.9594 34.7213 39.908C35.1158 39.4745 35.3095 38.8949 35.2547 38.3114L34.7727 27.55C35.6978 27.0601 36.3502 26.1764 36.546 25.148C36.7611 23.9254 36.6855 22.6694 36.3254 21.4814ZM35.2327 24.916C35.0883 25.6555 34.5613 26.2623 33.8493 26.5087C33.5791 26.6103 33.405 26.8743 33.418 27.1627L33.9247 38.4167C33.948 38.6374 33.8752 38.8575 33.7247 39.0207C33.3233 39.4181 32.6768 39.4181 32.2753 39.0207C32.1173 38.8444 32.0456 38.607 32.0793 38.3727L32.582 27.1627C32.595 26.8743 32.4209 26.6103 32.1507 26.5087C31.4387 26.2623 30.9117 25.6555 30.7673 24.916C30.589 23.901 30.6518 22.8583 30.9507 21.872L31.3787 20.4627C31.7098 19.5673 32.7042 19.1099 33.5997 19.441C34.0731 19.6161 34.4463 19.9894 34.6213 20.4627L35.0493 21.872C35.3479 22.8584 35.4107 23.901 35.2327 24.916Z" fill="white"/>
<path d="M26 18C25.6318 18 25.3333 18.2985 25.3333 18.6667V24.3907L23.5287 26.1953C23.3952 26.3283 23.3242 26.5118 23.3333 26.7L23.9167 38.3667C23.9306 38.6183 23.8392 38.8643 23.6647 39.046C23.2997 39.4142 22.7054 39.4168 22.3372 39.0518C22.3352 39.0499 22.3332 39.0479 22.3313 39.046C22.1567 38.8643 22.0654 38.6183 22.0793 38.3667L22.6667 26.7C22.676 26.5118 22.6052 26.3285 22.472 26.1953L20.6667 24.3907V18.6667C20.6667 18.2985 20.3682 18 20 18C19.6318 18 19.3333 18.2985 19.3333 18.6667V24.6667C19.3333 24.8435 19.4037 25.013 19.5287 25.138L21.3193 26.9293L20.7507 38.302C20.6902 39.5443 21.6482 40.6004 22.8904 40.6609C24.1327 40.7214 25.1888 39.7634 25.2493 38.5212C25.2529 38.4482 25.2529 38.3751 25.2493 38.3021L24.6807 26.9294L26.4713 25.1381C26.5963 25.0131 26.6667 24.8436 26.6667 24.6668V18.6668C26.6667 18.2985 26.3682 18 26 18Z" fill="white"/>
<path d="M22 18C21.6318 18 21.3333 18.2985 21.3333 18.6667V24C21.3333 24.3682 21.6318 24.6667 22 24.6667C22.3682 24.6667 22.6667 24.3682 22.6667 24V18.6667C22.6667 18.2985 22.3682 18 22 18Z" fill="white"/>
<path d="M24 18C23.6318 18 23.3333 18.2985 23.3333 18.6667V24C23.3333 24.3682 23.6318 24.6667 24 24.6667C24.3682 24.6667 24.6667 24.3682 24.6667 24V18.6667C24.6667 18.2985 24.3682 18 24 18Z" fill="white"/>
<path d="M28 8C16.9543 8 8 16.9543 8 28C8 39.0457 16.9543 48 28 48C39.0457 48 48 39.0457 48 28C47.9875 16.9595 39.0405 8.0125 28 8ZM28 46.6667C17.6907 46.6667 9.33333 38.3093 9.33333 28C9.33333 17.6907 17.6907 9.33333 28 9.33333C38.3093 9.33333 46.6667 17.6907 46.6667 28C46.6549 38.3044 38.3044 46.6549 28 46.6667Z" fill="white"/>
<path d="M30.1641 40.5143C30.1283 40.1479 29.8023 39.8798 29.4358 39.9156C29.4272 39.9164 29.4186 39.9174 29.41 39.9186L29.4127 39.9179C28.4741 40.0269 27.5259 40.0269 26.5873 39.9179C26.2215 39.875 25.8903 40.1367 25.8473 40.5026C25.8044 40.8684 26.0662 41.1996 26.432 41.2425C27.4729 41.3641 28.5244 41.3641 29.5653 41.2425C29.9318 41.2069 30.1998 40.8808 30.1641 40.5143Z" fill="white"/>
<path d="M38.2 19.4093C37.9634 19.1272 37.5429 19.0903 37.2608 19.3269C37.2599 19.3277 37.259 19.3285 37.258 19.3293C36.9766 19.5666 36.9407 19.9871 37.178 20.2686C41.1976 25.0403 40.8901 32.096 36.4707 36.5C36.2098 36.7599 36.2091 37.1821 36.469 37.443C36.7289 37.7038 37.1512 37.7045 37.412 37.4446C42.3234 32.5519 42.6659 24.7117 38.2 19.4093Z" fill="white"/>
<path d="M23.532 16.8119C23.5317 16.8119 23.5313 16.8118 23.531 16.8118C23.5305 16.8118 23.5299 16.8119 23.5293 16.8119H23.532Z" fill="white"/>
<path d="M31.1447 15.0393C28.5393 14.4149 25.8068 14.5827 23.2973 15.5213C22.9527 15.6509 22.7784 16.0354 22.908 16.38C23.0057 16.6397 23.254 16.8116 23.5314 16.8119C23.6112 16.8115 23.6902 16.7969 23.7647 16.7686C26.0245 15.9236 28.4852 15.7726 30.8313 16.3353C31.1893 16.4218 31.5495 16.2019 31.636 15.844C31.7225 15.4861 31.5026 15.1258 31.1447 15.0393Z" fill="white"/>
<path d="M19.4993 36.4667C17.2519 34.2231 15.9923 31.1757 16 28C15.9934 25.4628 16.7971 22.9898 18.294 20.9413C18.5153 20.647 18.456 20.2291 18.1617 20.0078C17.8673 19.7866 17.4494 19.8458 17.2282 20.1402C17.2243 20.1454 17.2204 20.1507 17.2167 20.156C13.3622 25.455 13.9294 32.7693 18.5547 37.4107C18.8153 37.6715 19.2382 37.6717 19.499 37.411C19.7598 37.1503 19.76 36.7275 19.4993 36.4667Z" fill="white"/>
</svg>
