<svg width="22" height="12" viewBox="0 0 22 12" fill="none" xmlns="http://www.w3.org/2000/svg">
    <path d="M0.687482 1.87496H21.3125C21.692 1.87496 21.9999 1.56694 21.9999 1.18748C21.9999 0.807967 21.6919 0.5 21.3125 0.5H0.687482C0.307967 0.5 0 0.808024 0 1.18748C0 1.56694 0.308024 1.87496 0.687482 1.87496Z" fill="#3DD498"/>
    <path d="M21.3125 5.3125H0.687482C0.307967 5.3125 0 5.62052 0 5.99998C0 6.37944 0.308024 6.68746 0.687482 6.68746H21.3125C21.692 6.68746 21.9999 6.37944 21.9999 5.99998C21.9999 5.62052 21.692 5.3125 21.3125 5.3125Z" fill="#3DD498"/>
    <path d="M21.3125 10.125H7.56248C7.18297 10.125 6.875 10.433 6.875 10.8125C6.875 11.192 7.18302 11.5 7.56248 11.5H21.3125C21.692 11.5 21.9999 11.1919 21.9999 10.8125C22 10.433 21.692 10.125 21.3125 10.125Z" fill="#3DD498"/>
</svg>
