<svg width="22" height="12" viewBox="0 0 22 12" fill="none" xmlns="http://www.w3.org/2000/svg">
<path d="M0.687482 1.875H21.3125C21.692 1.875 21.9999 1.56697 21.9999 1.18751C21.9999 0.807998 21.6919 0.500031 21.3125 0.500031H0.687482C0.307967 0.500031 0 0.808055 0 1.18751C0 1.56697 0.308024 1.875 0.687482 1.875Z" fill="#61707D"/>
<path d="M21.3125 5.31253H0.687482C0.307967 5.31253 0 5.62055 0 6.00001C0 6.37947 0.308024 6.68749 0.687482 6.68749H21.3125C21.692 6.68749 21.9999 6.37947 21.9999 6.00001C21.9999 5.62055 21.692 5.31253 21.3125 5.31253Z" fill="#61707D"/>
<path d="M21.3125 10.125H7.56248C7.18297 10.125 6.875 10.433 6.875 10.8125C6.875 11.192 7.18302 11.5 7.56248 11.5H21.3125C21.692 11.5 21.9999 11.1919 21.9999 10.8125C22 10.433 21.692 10.125 21.3125 10.125Z" fill="#61707D"/>
</svg>
