<svg width="17" height="18" viewBox="0 0 17 18" fill="none" xmlns="http://www.w3.org/2000/svg">
    <path d="M5.64576 12.2925V3.49246C5.64576 3.15658 5.89668 2.88788 6.1476 2.8207L16.1845 -0.000675132C16.6236 -0.0678507 17 0.268027 17 0.671081C17 0.671081 17 12.1581 17 13.1657C17 15.1138 15.1181 16.1886 13.5498 16.1886C11.9188 16.1886 10.0996 15.1138 10.0996 13.1657C10.0996 11.2848 11.9188 10.21 13.5498 10.21C14.3653 10.21 15.1181 10.4115 15.7454 10.8818V1.54436L6.90037 4.02986V5.50772L13.8007 3.62681C14.5535 3.3581 14.8672 4.70162 14.1144 4.90314L6.90037 6.91841C6.90037 9.47108 6.90037 12.0238 6.90037 14.5764C6.90037 16.5245 5.08118 17.5993 3.45018 17.5993C1.88192 17.5993 0 16.5245 0 14.5764C0 12.6955 1.88192 11.6207 3.45018 11.6207C4.26568 11.6207 5.08118 11.8894 5.64576 12.2925ZM13.5498 11.5535C12.6716 11.5535 11.3542 12.0238 11.3542 13.1657C11.3542 14.3077 12.6716 14.8451 13.5498 14.8451C14.428 14.8451 15.7454 14.3077 15.7454 13.1657C15.6827 12.0238 14.428 11.5535 13.5498 11.5535ZM3.45018 12.9642C2.57196 12.9642 1.25461 13.5016 1.25461 14.5764C1.25461 15.7184 2.57196 16.2558 3.45018 16.2558C4.32841 16.2558 5.64576 15.7184 5.64576 14.5764C5.64576 13.5016 4.32841 12.9642 3.45018 12.9642Z" fill="white"/>
</svg>
