<svg width="44" height="44" viewBox="0 0 44 44" fill="none" xmlns="http://www.w3.org/2000/svg">
    <circle cx="22" cy="22" r="22" fill="#F2F4F5"/>
    <mask id="mask0" mask-type="alpha" maskUnits="userSpaceOnUse" x="0" y="0" width="44" height="44">
        <circle cx="22" cy="22" r="22" fill="#F2F4F5"/>
    </mask>
    <g mask="url(#mask0)">
        <path d="M38.3441 40.4112C37.3761 38.1518 32.6514 36.6569 29.5122 35.2533C26.3729 33.8498 26.802 32.9985 26.6891 31.8346C26.6592 31.5244 26.6486 31.1768 26.6497 30.8334C27.5809 29.9024 28.3456 28.6961 28.858 27.3237C28.858 27.3237 28.8879 27.246 28.8964 27.2224C29.0164 26.8906 29.1235 26.5448 29.2153 26.1922C29.9348 26.0447 30.354 25.252 30.5145 24.5187C30.676 24.2219 31.0126 23.4903 30.9354 22.6602C30.8661 21.9142 30.6372 21.4487 30.3431 21.1649C31.5229 19.6551 32.3097 16.2082 28.8706 14.4592C28.8706 14.4592 28.2055 9.48691 20.5683 10.0435C14.9984 10.7821 14.4139 14.997 14.2704 15.0902C12.3814 16.3165 12.2505 20.2858 13.3317 21.5012C13.1681 21.7797 13.0478 22.1552 13.0009 22.6602C12.9237 23.4903 13.2599 24.2219 13.4218 24.5187C13.5846 25.2647 14.0158 26.0726 14.7583 26.1996C14.8508 26.5539 14.9589 26.9019 15.0807 27.2365C15.0885 27.258 15.097 27.2795 15.1055 27.3011L15.1164 27.33C15.6522 28.7621 16.4624 30.0139 17.4505 30.9594C17.4488 31.2615 17.4376 31.5629 17.4114 31.835C17.2985 32.9989 17.6287 33.8498 14.4894 35.2537C11.3501 36.6572 6.62543 38.1525 5.65744 40.4115C4.68944 42.6706 5.07637 44 5.07637 44H38.9228C38.9221 43.9996 39.3124 42.6702 38.3441 40.4112Z" fill="#D8D8D8"/>
    </g>
</svg>
