<svg width="20" height="26" viewBox="0 0 20 26" fill="none" xmlns="http://www.w3.org/2000/svg">
    <path d="M0.251306 17.5817C0.170995 17.6627 0.107457 17.7587 0.0643353 17.8643C0.0212132 17.9699 -0.000644847 18.0829 1.44833e-05 18.197V21.663C1.44833e-05 21.8929 0.0913087 22.1133 0.253813 22.2758C0.416317 22.4383 0.63672 22.5296 0.866536 22.5296H5.2858C5.48468 23.509 6.01604 24.3895 6.78986 25.022C7.56367 25.6545 8.53235 26 9.53176 26C10.5312 26 11.4998 25.6545 12.2737 25.022C13.0475 24.3895 13.5788 23.509 13.7777 22.5296H18.197C18.4268 22.5296 18.6472 22.4383 18.8097 22.2758C18.9722 22.1133 19.0635 21.8929 19.0635 21.663V18.197C19.0642 18.0829 19.0423 17.9699 18.9992 17.8643C18.9561 17.7587 18.8925 17.6627 18.8122 17.5817M0.251306 17.5817L0.321809 17.6526L0.322092 17.6524C0.251149 17.7239 0.195018 17.8088 0.156911 17.9021C0.118765 17.9955 0.0994296 18.0955 0.100013 18.1964L0.100016 18.197L0.100014 21.663C0.100014 21.8663 0.180773 22.0613 0.324524 22.2051C0.468274 22.3488 0.663242 22.4296 0.866536 22.4296H5.2858H5.36753L5.3838 22.5097C5.57809 23.4665 6.09719 24.3267 6.85314 24.9446C7.6091 25.5625 8.55542 25.9 9.53176 25.9C10.5081 25.9 11.4544 25.5625 12.2104 24.9446C12.9663 24.3267 13.4854 23.4665 13.6797 22.5097L13.696 22.4296H13.7777H18.197C18.4003 22.4296 18.5952 22.3488 18.739 22.2051C18.8827 22.0613 18.9635 21.8663 18.9635 21.663V18.197V18.1964C18.9641 18.0955 18.9447 17.9955 18.9066 17.9021C18.8685 17.8088 18.8124 17.7239 18.7414 17.6524L18.7417 17.6526L18.8122 17.5817M0.251306 17.5817L1.73306 16.1086V9.53174M0.251306 17.5817L0.322305 17.6522L1.80356 16.1796L1.83306 16.1502V16.1086V9.53179L1.73306 9.53174M18.8122 17.5817L18.7412 17.6522L17.2599 16.1796L17.2305 16.1502V16.1086V9.53179L17.3305 9.53174M18.8122 17.5817L17.3305 16.1086V9.53174M17.3305 9.53174C17.3295 7.61408 16.6221 5.76397 15.3433 4.33493C14.0645 2.90589 12.3041 1.99811 10.3983 1.78504V0.866522C10.3983 0.636706 10.307 0.416303 10.1445 0.253798C9.98198 0.091294 9.76157 0 9.53176 0C9.30194 0 9.08154 0.091294 8.91903 0.253798C8.75653 0.416303 8.66523 0.636706 8.66523 0.866522V1.78504C6.75944 1.99811 4.99897 2.90589 3.72018 4.33493C2.4414 5.76397 1.73397 7.61408 1.73306 9.53174M17.3305 9.53174H17.2305C17.2295 7.63868 16.5312 5.81232 15.2688 4.40162C14.0064 2.9909 12.2685 2.09476 10.3872 1.88442L10.2983 1.87448V1.78504V0.866522C10.2983 0.663227 10.2175 0.46826 10.0738 0.324509C9.93002 0.180758 9.73505 0.1 9.53176 0.1C9.32846 0.1 9.13349 0.180758 8.98974 0.324509C8.84599 0.46826 8.76523 0.663228 8.76523 0.866522V1.78504V1.87448L8.67634 1.88442C6.79499 2.09476 5.05709 2.9909 3.7947 4.40162C2.53233 5.81232 1.83397 7.63868 1.83306 9.53174H1.73306M7.08816 22.4296H6.94674L6.99388 22.5629C7.17954 23.088 7.52306 23.5428 7.97737 23.865C8.43167 24.1873 8.97451 24.361 9.53147 24.3626H9.53204C10.089 24.361 10.6318 24.1873 11.0861 23.865C11.5404 23.5428 11.884 23.088 12.0696 22.5629L12.1168 22.4296H11.9753H7.08816ZM17.3305 20.8965H17.4305V20.7965V18.5522V18.5106L17.401 18.4813L15.9197 17.0087C15.9197 17.0087 15.9196 17.0086 15.9196 17.0086C15.8486 16.937 15.7924 16.8521 15.7543 16.7588C15.7162 16.6654 15.6968 16.5654 15.6974 16.4645V16.4639V9.53174C15.6974 7.89651 15.0478 6.32825 13.8915 5.17197C12.7352 4.01568 11.167 3.36609 9.53176 3.36609C7.89652 3.36609 6.32826 4.01568 5.17198 5.17197C4.0157 6.32825 3.3661 7.89651 3.3661 9.53174V15.5974V15.6974H3.4661H12.1313C12.3346 15.6974 12.5296 15.7782 12.6733 15.9219C12.8171 16.0657 12.8978 16.2606 12.8978 16.4639C12.8978 16.6672 12.8171 16.8622 12.6733 17.0059C12.5296 17.1497 12.3346 17.2304 12.1313 17.2304H2.95485H2.91343L2.88414 17.2597L1.66235 18.4815L1.63306 18.5108V18.5522V20.7965V20.8965H1.73306H17.3305Z" fill="#61707D" stroke="white" stroke-width="0.1"/>
</svg>
