<svg width="12" height="16" viewBox="0 0 12 16" fill="none" xmlns="http://www.w3.org/2000/svg">
    <path fill-rule="evenodd" clip-rule="evenodd" d="M3.75 0.5H2.25C1.42157 0.5 0.75 1.17157 0.75 2V14C0.75 14.8284 1.42157 15.5 2.25 15.5H3.75C4.57843 15.5 5.25 14.8284 5.25 14V2C5.25 1.17157 4.57843 0.5 3.75 0.5ZM9.75 0.5H8.25C7.42157 0.5 6.75 1.17157 6.75 2V14C6.75 14.8284 7.42157 15.5 8.25 15.5H9.75C10.5784 15.5 11.25 14.8284 11.25 14V2C11.25 1.17157 10.5784 0.5 9.75 0.5ZM2.25 2V14H3.75V2H2.25ZM8.25 14V2H9.75V14H8.25Z" fill="#61707D"/>
</svg>
