<svg width="22" height="21" viewBox="0 0 22 21" fill="none" xmlns="http://www.w3.org/2000/svg">
    <path d="M14.5035 6.27308C14.3646 6.25587 14.2431 6.16119 14.1736 6.04069L11.5698 0.800168C11.2023 0.0605301 10.1474 0.0600086 9.77913 0.799283L7.1684 6.04069C7.10764 6.1698 6.98611 6.25587 6.83854 6.27308L1.01903 7.1102C0.196217 7.22855 -0.131337 8.24084 0.466171 8.81879L4.6684 12.8834C4.77257 12.9781 4.81597 13.1244 4.78993 13.2621L3.79717 19.0086C3.65623 19.8244 4.51096 20.4483 5.245 20.0655L10.467 17.3419C10.5278 17.3075 10.5972 17.2903 10.6667 17.2903C10.7361 17.2903 10.8056 17.3075 10.8663 17.3419L16.0883 20.0655C16.8224 20.4483 17.6771 19.8244 17.5362 19.0086L16.5434 13.2621C16.5174 13.1244 16.5694 12.9781 16.6649 12.8834L20.8675 8.81851C21.4649 8.24061 21.1375 7.22842 20.3147 7.10994L14.5035 6.27308Z" fill="#F2F4F5"/>
</svg>
