<svg width="16" height="20" viewBox="0 0 16 20" fill="none" xmlns="http://www.w3.org/2000/svg">
    <path d="M4.47559 6.47571H11.9756V7.72571H4.47559V6.47571Z" fill="#61707D"/>
    <path d="M4.47559 10.3608H11.9756V11.6109H4.47559V10.3608Z" fill="#61707D"/>
    <path d="M4.25 13.75H8.00002V15H4.25V13.75Z" fill="#61707D"/>
    <path d="M13.625 1.25001H10.9461C10.5342 0.509188 9.41043 0 7.99999 0C6.58955 0 5.46582 0.509188 5.05382 1.25001H2.37501C1.34107 1.25001 0.5 2.09107 0.5 3.12501V18.125C0.5 19.159 1.34107 20 2.37501 20H13.625C14.659 20 15.5 19.159 15.5 18.125V3.12501C15.5 2.09107 14.6589 1.25001 13.625 1.25001ZM7.99999 1.25001C8.34513 1.25001 8.62499 1.52977 8.62499 1.87501C8.62499 2.22015 8.34513 2.50001 7.99999 2.50001C7.65485 2.50001 7.37499 2.22015 7.37499 1.87501C7.37499 1.52977 7.65485 1.25001 7.99999 1.25001ZM14.25 18.125C14.25 18.4698 13.9698 18.75 13.625 18.75H2.37501C2.03018 18.75 1.75001 18.4699 1.75001 18.125V3.12501C1.75001 2.78019 2.03014 2.50001 2.37501 2.50001H4.87502V3.12501C4.87502 3.47047 5.15456 3.75002 5.50002 3.75002H10.5C10.8455 3.75002 11.125 3.47047 11.125 3.12501V2.50001H13.625C13.9698 2.50001 14.25 2.78014 14.25 3.12501V18.125H14.25Z" fill="#61707D"/>
</svg>
