<svg width="24" height="24" viewBox="0 0 24 24" fill="none" xmlns="http://www.w3.org/2000/svg">
    <path fill-rule="evenodd" clip-rule="evenodd" d="M8 6H6V2H8V6ZM8 22V12H9C10.1046 12 11 11.1046 11 10V9C11 7.89543 10.1046 7 9 7H5C3.89543 7 3 7.89543 3 9V10C3 11.1046 3.89543 12 5 12H6V22H8ZM18 22V17H19C20.1046 17 21 16.1046 21 15V14C21 12.8954 20.1046 12 19 12H15C13.8954 12 13 12.8954 13 14V15C13 16.1046 13.8954 17 15 17H16V22H18ZM16 11H18V2H16V11ZM5 9V10H9V9H5ZM15 15V14H19V15H15Z" fill="#61707D"/>
    <path d="M6 6H5.75V6.25H6V6ZM8 6V6.25H8.25V6H8ZM6 2V1.75H5.75V2H6ZM8 2H8.25V1.75H8V2ZM8 12V11.75H7.75V12H8ZM8 22V22.25H8.25V22H8ZM6 12H6.25V11.75H6V12ZM6 22H5.75V22.25H6V22ZM18 17V16.75H17.75V17H18ZM18 22V22.25H18.25V22H18ZM16 17H16.25V16.75H16V17ZM16 22H15.75V22.25H16V22ZM18 11V11.25H18.25V11H18ZM16 11H15.75V11.25H16V11ZM18 2H18.25V1.75H18V2ZM16 2V1.75H15.75V2H16ZM5 10H4.75V10.25H5V10ZM5 9V8.75H4.75V9H5ZM9 10V10.25H9.25V10H9ZM9 9H9.25V8.75H9V9ZM15 14V13.75H14.75V14H15ZM15 15H14.75V15.25H15V15ZM19 14H19.25V13.75H19V14ZM19 15V15.25H19.25V15H19ZM6 6.25H8V5.75H6V6.25ZM5.75 2V6H6.25V2H5.75ZM8 1.75H6V2.25H8V1.75ZM8.25 6V2H7.75V6H8.25ZM7.75 12V22H8.25V12H7.75ZM9 11.75H8V12.25H9V11.75ZM10.75 10C10.75 10.9665 9.9665 11.75 9 11.75V12.25C10.2426 12.25 11.25 11.2426 11.25 10H10.75ZM10.75 9V10H11.25V9H10.75ZM9 7.25C9.9665 7.25 10.75 8.0335 10.75 9H11.25C11.25 7.75736 10.2426 6.75 9 6.75V7.25ZM5 7.25H9V6.75H5V7.25ZM3.25 9C3.25 8.0335 4.0335 7.25 5 7.25V6.75C3.75736 6.75 2.75 7.75736 2.75 9H3.25ZM3.25 10V9H2.75V10H3.25ZM5 11.75C4.0335 11.75 3.25 10.9665 3.25 10H2.75C2.75 11.2426 3.75736 12.25 5 12.25V11.75ZM6 11.75H5V12.25H6V11.75ZM6.25 22V12H5.75V22H6.25ZM8 21.75H6V22.25H8V21.75ZM17.75 17V22H18.25V17H17.75ZM19 16.75H18V17.25H19V16.75ZM20.75 15C20.75 15.9665 19.9665 16.75 19 16.75V17.25C20.2426 17.25 21.25 16.2426 21.25 15H20.75ZM20.75 14V15H21.25V14H20.75ZM19 12.25C19.9665 12.25 20.75 13.0335 20.75 14H21.25C21.25 12.7574 20.2426 11.75 19 11.75V12.25ZM15 12.25H19V11.75H15V12.25ZM13.25 14C13.25 13.0335 14.0335 12.25 15 12.25V11.75C13.7574 11.75 12.75 12.7574 12.75 14H13.25ZM13.25 15V14H12.75V15H13.25ZM15 16.75C14.0335 16.75 13.25 15.9665 13.25 15H12.75C12.75 16.2426 13.7574 17.25 15 17.25V16.75ZM16 16.75H15V17.25H16V16.75ZM16.25 22V17H15.75V22H16.25ZM18 21.75H16V22.25H18V21.75ZM18 10.75H16V11.25H18V10.75ZM17.75 2V11H18.25V2H17.75ZM16 2.25H18V1.75H16V2.25ZM16.25 11V2H15.75V11H16.25ZM5.25 10V9H4.75V10H5.25ZM9 9.75H5V10.25H9V9.75ZM8.75 9V10H9.25V9H8.75ZM5 9.25H9V8.75H5V9.25ZM14.75 14V15H15.25V14H14.75ZM19 13.75H15V14.25H19V13.75ZM19.25 15V14H18.75V15H19.25ZM15 15.25H19V14.75H15V15.25Z" fill="white"/>
</svg>
