<svg width="19" height="24" viewBox="0 0 19 24" fill="none" xmlns="http://www.w3.org/2000/svg">
<path d="M17.9231 6.07689C17.9231 5.14226 17.1655 4.38458 16.2308 4.38458H13.8815C13.5681 4.03644 13.1655 3.77006 12.703 3.637C12.3134 3.52499 12.0135 3.22513 11.9015 2.83553C11.5966 1.77545 10.6197 1 9.46153 1C8.30345 1 7.32656 1.77545 7.02174 2.83542C6.90951 3.2255 6.60892 3.52499 6.21884 3.63737C5.75684 3.77053 5.35465 4.03665 5.04151 4.38458H2.69232C1.75763 4.38458 1 5.14226 1 6.07689V21.3077C1 22.2423 1.75763 23 2.69232 23C6.57756 23 11.3526 23 16.2308 23C17.1655 23 17.9232 22.2423 17.9232 21.3077C17.9232 16.5016 17.9231 11.8994 17.9231 6.07689ZM5.23084 6.0633C5.23666 5.31942 5.73928 4.65625 6.45312 4.45053C7.12529 4.25686 7.64181 3.74049 7.83484 3.06939C8.04204 2.34909 8.71093 1.84616 9.46153 1.84616C10.2122 1.84616 10.8811 2.34909 11.0882 3.06939C11.2813 3.74092 11.7975 4.25713 12.469 4.45021C13.1892 4.65736 13.6923 5.3263 13.6923 6.07684V6.923H5.23084V6.0633ZM16.2308 22.1538C11.7116 22.1538 7.19969 22.1538 2.69232 22.1538C2.22571 22.1538 1.84616 21.7742 1.84616 21.3077V6.07689C1.84616 5.61034 2.22571 5.23074 2.69232 5.23074H4.52964C4.43815 5.48945 4.38696 5.76715 4.38474 6.05664V7.76921H14.5385V6.07689C14.5385 5.77995 14.4861 5.49564 14.3924 5.23074H16.2308C16.6974 5.23074 17.077 5.61034 17.077 6.07689C17.077 8.49601 17.0769 19.8404 17.0771 21.3077C17.077 21.7742 16.6974 22.1538 16.2308 22.1538Z" fill="#61707D" stroke="#61707D" stroke-width="0.4"/>
<path d="M12.9258 11L7.83997 16.0857L5.59829 13.844L5 14.4424L7.83997 17.2824L13.524 11.5983L12.9258 11Z" fill="#61707D" stroke="#61707D" stroke-width="0.4"/>
</svg>
