<svg width="20" height="10" viewBox="0 0 20 10" fill="none" xmlns="http://www.w3.org/2000/svg">
    <path d="M11.2093 0H0.697674C0.302326 0 0 0.302326 0 0.697674V9.30233C0 9.69767 0.302326 10 0.697674 10H11.2093C11.6047 10 11.907 9.69767 11.907 9.30233V0.697674C11.907 0.302326 11.6047 0 11.2093 0Z" fill="white"/>
    <path d="M19.2092 0.209079C18.9999 0.0927996 18.7441 0.0695437 18.5348 0.185823L13.4185 2.74396C13.186 2.86024 13.0232 3.0928 13.0232 3.37187V6.16257C13.0232 6.41838 13.1627 6.62768 13.372 6.76722L18.4883 9.79047C18.6046 9.86024 18.7209 9.8835 18.8371 9.8835C18.9534 9.8835 19.0697 9.86024 19.186 9.79047C19.3953 9.67419 19.5348 9.44164 19.5348 9.18582V0.81373C19.5348 0.581172 19.4185 0.348614 19.2092 0.209079Z" fill="white"/>
</svg>
