<svg width="21" height="21" viewBox="0 0 21 21" fill="none" xmlns="http://www.w3.org/2000/svg">
    <path d="M15.8686 1.00004C15.7548 1.0014 15.646 1.04663 15.5652 1.12615L1.12732 15.4266C1.08675 15.467 1.05462 15.5149 1.03277 15.5676C1.01092 15.6203 0.999789 15.6768 1 15.7338V19.633C0.999953 19.6899 1.01123 19.7463 1.03319 19.7989C1.05516 19.8515 1.08738 19.8993 1.12801 19.9396C1.16864 19.9799 1.21688 20.0119 1.26999 20.0337C1.32309 20.0555 1.38002 20.0667 1.4375 20.0667H5.37415C5.43171 20.0669 5.48874 20.0558 5.54197 20.0341C5.59519 20.0123 5.64357 19.9804 5.68433 19.9402L20.1223 5.63976C20.2041 5.55851 20.2501 5.44839 20.2501 5.33359C20.2501 5.21878 20.2041 5.10867 20.1223 5.02742L16.1835 1.12615C16.1421 1.0854 16.093 1.05326 16.0389 1.0316C15.9848 1.00994 15.9269 0.999215 15.8686 1.00004ZM15.875 2.04614L19.1934 5.33295L17.1871 7.31977L13.8691 4.03338L15.875 2.04614ZM13.2496 4.64656L16.568 7.93338L5.19342 19.1996H1.875V16.7803L3.53357 18.4239L4.15351 17.8099L2.05616 15.7334L13.2496 4.64656Z" fill="#61707D" stroke="#61707D"/>
</svg>
