<svg width="10" height="10" viewBox="0 0 10 10" fill="none" xmlns="http://www.w3.org/2000/svg">
    <path d="M7.49715 0.422385C7.44295 0.423043 7.39113 0.445081 7.3527 0.483822L0.4775 7.45069C0.458179 7.47038 0.442879 7.49373 0.432476 7.51941C0.422072 7.5451 0.41677 7.57261 0.416872 7.60037V9.49996C0.416848 9.5277 0.422218 9.55517 0.432677 9.58081C0.443136 9.60644 0.458477 9.62974 0.477825 9.64936C0.497173 9.66899 0.520147 9.68455 0.545435 9.69518C0.570724 9.7058 0.59783 9.71127 0.625205 9.71127H2.4998C2.52721 9.71135 2.55437 9.70594 2.57971 9.69537C2.60506 9.68479 2.62809 9.66925 2.6475 9.64963L9.52271 2.68276C9.5617 2.64317 9.5836 2.58953 9.5836 2.5336C9.5836 2.47767 9.5617 2.42402 9.52271 2.38444L7.6471 0.483822C7.62741 0.463971 7.604 0.448309 7.57825 0.437759C7.5525 0.427208 7.52493 0.421981 7.49715 0.422385ZM7.5002 0.93202L9.0804 2.53329L8.125 3.50123L6.545 1.90016L7.5002 0.93202ZM6.25 2.19889L7.8302 3.80016L2.41374 9.28884H0.833538V8.11021L1.62333 8.91095L1.91854 8.61181L0.919801 7.60016L6.25 2.19889Z" fill="#61707D"/>
</svg>
